<svg xmlns="http://www.w3.org/2000/svg" viewBox="0 0 300 220" width="300" height="220">
<rect width="300" height="220" fill="#1a2332" rx="12"/>
<rect x="3" y="80" width="44" height="60" fill="#1e2d3d" stroke="#374151" stroke-width="2" rx="2"/><polygon points="35.392304845413264,99 35.392304845413264,111 25,117 14.607695154586736,111 14.607695154586736,99 24.999999999999996,93 " fill="#3B82F6" stroke="none" stroke-width="2"/><circle cx="25" cy="122" r="6" fill="#94A3B8" stroke="none" stroke-width="2"/><line x1="25" y1="90" x2="40" y2="90" stroke="#06B6D4" stroke-width="1.5" stroke-linecap="round"/><rect x="59" y="80" width="44" height="60" fill="#1e2d3d" stroke="#374151" stroke-width="2" rx="2"/><polygon points="81,89 84.76182561467184,99.82229123600034 96.21690426072246,100.05572809000084 87.08676170428899,106.97770876399966 90.40456403667957,117.94427190999916 81,111.4 71.59543596332043,117.94427190999916 74.91323829571101,106.97770876399966 65.78309573927754,100.05572809000084 77.23817438532816,99.82229123600034" fill="#EF4444"/><rect x="75" y="116" width="12" height="12" fill="#94A3B8" stroke="none" stroke-width="2" rx="2"/><line x1="81" y1="90" x2="91.60660171779821" y2="100.60660171779821" stroke="#06B6D4" stroke-width="1.5" stroke-linecap="round"/><rect x="115" y="80" width="44" height="60" fill="#1e2d3d" stroke="#374151" stroke-width="2" rx="2"/><circle cx="137" cy="105" r="20" fill="#10B981" stroke="none" stroke-width="2"/><polygon points="137,116 131.78,125 142.22,125" fill="#94A3B8" stroke="none" stroke-width="2"/><line x1="137" y1="90" x2="137" y2="105" stroke="#06B6D4" stroke-width="1.5" stroke-linecap="round"/><rect x="171" y="80" width="44" height="60" fill="#1e2d3d" stroke="#374151" stroke-width="2" rx="2"/><rect x="181" y="93" width="24" height="24" fill="#F59E0B" stroke="none" stroke-width="2" rx="2"/><polygon points="193,116 197.2,122 193,128 188.8,122" fill="#94A3B8" stroke="none" stroke-width="2"/><line x1="193" y1="90" x2="182.3933982822018" y2="100.60660171779821" stroke="#06B6D4" stroke-width="1.5" stroke-linecap="round"/><rect x="227" y="80" width="44" height="60" fill="#1e2d3d" stroke="#374151" stroke-width="2" rx="2"/><text x="249" y="116" text-anchor="middle" font-family="system-ui" font-size="24" font-weight="700" fill="#3B82F6">?</text>
<text x="150" y="214" text-anchor="middle" font-family="system-ui" font-size="9" fill="#475569">BPR-5 RA - Q16</text>
</svg>