<svg xmlns="http://www.w3.org/2000/svg" viewBox="0 0 300 220" width="300" height="220">
<rect width="300" height="220" fill="#1a2332" rx="12"/>
<rect x="3" y="80" width="44" height="60" fill="#1e2d3d" stroke="#374151" stroke-width="2" rx="2"/><polygon points="25,93 27.82136921100387,101.11671842700025 36.412678195541844,101.29179606750063 29.565071278216738,106.48328157299974 32.05342302750968,114.70820393249937 25,109.8 17.946576972490323,114.70820393249937 20.434928721783262,106.48328157299974 13.587321804458158,101.29179606750063 22.178630788996127,101.11671842700025" fill="#F59E0B"/><rect x="19" y="116" width="12" height="12" fill="#94A3B8" stroke="none" stroke-width="2" rx="2"/><line x1="25" y1="90" x2="40" y2="90" stroke="#06B6D4" stroke-width="1.5" stroke-linecap="round"/><rect x="59" y="80" width="44" height="60" fill="#1e2d3d" stroke="#374151" stroke-width="2" rx="2"/><circle cx="81" cy="105" r="16" fill="#3B82F6" stroke="none" stroke-width="2"/><polygon points="81,116 75.78,125 86.22,125" fill="#94A3B8" stroke="none" stroke-width="2"/><line x1="81" y1="90" x2="91.60660171779821" y2="100.60660171779821" stroke="#06B6D4" stroke-width="1.5" stroke-linecap="round"/><rect x="115" y="80" width="44" height="60" fill="#1e2d3d" stroke="#374151" stroke-width="2" rx="2"/><rect x="117" y="85" width="40" height="40" fill="#EF4444" stroke="none" stroke-width="2" rx="2"/><polygon points="137,116 141.2,122 137,128 132.8,122" fill="#94A3B8" stroke="none" stroke-width="2"/><line x1="137" y1="90" x2="137" y2="105" stroke="#06B6D4" stroke-width="1.5" stroke-linecap="round"/><rect x="171" y="80" width="44" height="60" fill="#1e2d3d" stroke="#374151" stroke-width="2" rx="2"/><polygon points="193,93 182.56,111 203.44,111" fill="#10B981" stroke="none" stroke-width="2"/><polygon points="198.19615242270663,119 198.19615242270663,125 193,128 187.80384757729337,125 187.80384757729337,119 193,116 " fill="#94A3B8" stroke="none" stroke-width="2"/><line x1="193" y1="90" x2="182.3933982822018" y2="100.60660171779821" stroke="#06B6D4" stroke-width="1.5" stroke-linecap="round"/><rect x="227" y="80" width="44" height="60" fill="#1e2d3d" stroke="#374151" stroke-width="2" rx="2"/><text x="249" y="116" text-anchor="middle" font-family="system-ui" font-size="24" font-weight="700" fill="#3B82F6">?</text>
<text x="150" y="214" text-anchor="middle" font-family="system-ui" font-size="9" fill="#475569">BPR-5 RA - Q11</text>
</svg>