<svg xmlns="http://www.w3.org/2000/svg" viewBox="0 0 300 220" width="300" height="220">
<rect width="300" height="220" fill="#1a2332" rx="12"/>
<rect x="3" y="80" width="44" height="60" fill="#1e2d3d" stroke="#374151" stroke-width="2" rx="2"/><rect x="13" y="93" width="24" height="24" fill="#EF4444" stroke="none" stroke-width="2" rx="2"/><polygon points="25,116 29.2,122 25,128 20.8,122" fill="#94A3B8" stroke="none" stroke-width="2"/><line x1="25" y1="90" x2="40" y2="90" stroke="#06B6D4" stroke-width="1.5" stroke-linecap="round"/><rect x="59" y="80" width="44" height="60" fill="#1e2d3d" stroke="#374151" stroke-width="2" rx="2"/><polygon points="81,89 67.08,113 94.92,113" fill="#10B981" stroke="none" stroke-width="2"/><polygon points="86.19615242270663,119 86.19615242270663,125 81,128 75.80384757729337,125 75.80384757729337,119 81,116 " fill="#94A3B8" stroke="none" stroke-width="2"/><line x1="81" y1="90" x2="91.60660171779821" y2="100.60660171779821" stroke="#06B6D4" stroke-width="1.5" stroke-linecap="round"/><rect x="115" y="80" width="44" height="60" fill="#1e2d3d" stroke="#374151" stroke-width="2" rx="2"/><polygon points="137,85 151,105 137,125 123,105" fill="#F59E0B" stroke="none" stroke-width="2"/><polygon points="137,116 138.41068460550193,120.05835921350013 142.70633909777092,120.14589803375031 139.28253563910837,122.74164078649987 140.52671151375483,126.85410196624969 137,124.4 133.47328848624517,126.85410196624969 134.71746436089163,122.74164078649987 131.29366090222908,120.14589803375031 135.58931539449807,120.05835921350013" fill="#94A3B8"/><line x1="137" y1="90" x2="137" y2="105" stroke="#06B6D4" stroke-width="1.5" stroke-linecap="round"/><rect x="171" y="80" width="44" height="60" fill="#1e2d3d" stroke="#374151" stroke-width="2" rx="2"/><polygon points="203.39230484541326,99 203.39230484541326,111 193,117 182.60769515458674,111 182.60769515458674,99 193,93 " fill="#3B82F6" stroke="none" stroke-width="2"/><circle cx="193" cy="122" r="6" fill="#94A3B8" stroke="none" stroke-width="2"/><line x1="193" y1="90" x2="182.3933982822018" y2="100.60660171779821" stroke="#06B6D4" stroke-width="1.5" stroke-linecap="round"/><rect x="227" y="80" width="44" height="60" fill="#1e2d3d" stroke="#374151" stroke-width="2" rx="2"/><text x="249" y="116" text-anchor="middle" font-family="system-ui" font-size="24" font-weight="700" fill="#3B82F6">?</text>
<text x="150" y="214" text-anchor="middle" font-family="system-ui" font-size="9" fill="#475569">BPR-5 RA - Q13</text>
</svg>