<svg xmlns="http://www.w3.org/2000/svg" viewBox="0 0 300 220" width="300" height="220">
<rect width="300" height="220" fill="#1a2332" rx="12"/>
<rect x="3" y="80" width="44" height="60" fill="#1e2d3d" stroke="#374151" stroke-width="2" rx="2"/><polygon points="25,93 33.4,105 25,117 16.6,105" fill="#F59E0B" stroke="none" stroke-width="2"/><rect x="59" y="80" width="44" height="60" fill="#1e2d3d" stroke="#374151" stroke-width="2" rx="2"/><polygon points="94.85640646055101,97 94.85640646055101,113 81,121 67.14359353944899,113 67.14359353944899,97 81,89 " fill="#3B82F6" stroke="none" stroke-width="2"/><rect x="115" y="80" width="44" height="60" fill="#1e2d3d" stroke="#374151" stroke-width="2" rx="2"/><polygon points="137,85 141.7022820183398,98.52786404500043 156.02113032590307,98.81966011250105 144.60845213036123,107.47213595499957 148.75570504584945,121.18033988749895 137,113 125.24429495415055,121.18033988749895 129.39154786963877,107.47213595499959 117.97886967409693,98.81966011250104 132.2977179816602,98.52786404500043" fill="#EF4444"/><rect x="171" y="80" width="44" height="60" fill="#1e2d3d" stroke="#374151" stroke-width="2" rx="2"/><circle cx="193" cy="105" r="12" fill="#10B981" stroke="none" stroke-width="2"/><rect x="227" y="80" width="44" height="60" fill="#1e2d3d" stroke="#374151" stroke-width="2" rx="2"/><text x="249" y="116" text-anchor="middle" font-family="system-ui" font-size="24" font-weight="700" fill="#3B82F6">?</text>
<text x="150" y="214" text-anchor="middle" font-family="system-ui" font-size="9" fill="#475569">BPR-5 RA - Q3</text>
</svg>