<svg xmlns="http://www.w3.org/2000/svg" viewBox="0 0 300 220" width="300" height="220">
<rect width="300" height="220" fill="#1a2332" rx="12"/>
<rect x="3" y="80" width="44" height="60" fill="#1e2d3d" stroke="#374151" stroke-width="2" rx="2"/><polygon points="25,93 14.56,111 35.44,111" fill="#10B981" stroke="none" stroke-width="2"/><rect x="59" y="80" width="44" height="60" fill="#1e2d3d" stroke="#374151" stroke-width="2" rx="2"/><polygon points="81,89 92.2,105 81,121 69.8,105" fill="#F59E0B" stroke="none" stroke-width="2"/><rect x="115" y="80" width="44" height="60" fill="#1e2d3d" stroke="#374151" stroke-width="2" rx="2"/><polygon points="154.32050807568876,95 154.32050807568876,115 137,125 119.67949192431122,115 119.67949192431124,95 137,85 " fill="#3B82F6" stroke="none" stroke-width="2"/><rect x="171" y="80" width="44" height="60" fill="#1e2d3d" stroke="#374151" stroke-width="2" rx="2"/><polygon points="193,93 195.82136921100388,101.11671842700025 204.41267819554184,101.29179606750063 197.56507127821675,106.48328157299974 200.05342302750967,114.70820393249937 193,109.8 185.94657697249033,114.70820393249937 188.43492872178325,106.48328157299974 181.58732180445816,101.29179606750063 190.17863078899612,101.11671842700025" fill="#EF4444"/><rect x="227" y="80" width="44" height="60" fill="#1e2d3d" stroke="#374151" stroke-width="2" rx="2"/><text x="249" y="116" text-anchor="middle" font-family="system-ui" font-size="24" font-weight="700" fill="#3B82F6">?</text>
<text x="150" y="214" text-anchor="middle" font-family="system-ui" font-size="9" fill="#475569">BPR-5 RA - Q2</text>
</svg>