<svg xmlns="http://www.w3.org/2000/svg" viewBox="0 0 300 220" width="300" height="220">
<rect width="300" height="220" fill="#1a2332" rx="12"/>
<rect x="3" y="80" width="44" height="60" fill="#1e2d3d" stroke="#374151" stroke-width="2" rx="2"/><circle cx="25" cy="105" r="12" fill="#3B82F6" stroke="none" stroke-width="2"/><polygon points="25,116 19.78,125 30.22,125" fill="#94A3B8" stroke="none" stroke-width="2"/><line x1="25" y1="90" x2="40" y2="90" stroke="#06B6D4" stroke-width="1.5" stroke-linecap="round"/><rect x="59" y="80" width="44" height="60" fill="#1e2d3d" stroke="#374151" stroke-width="2" rx="2"/><rect x="65" y="89" width="32" height="32" fill="#EF4444" stroke="none" stroke-width="2" rx="2"/><polygon points="81,116 85.2,122 81,128 76.8,122" fill="#94A3B8" stroke="none" stroke-width="2"/><line x1="81" y1="90" x2="91.60660171779821" y2="100.60660171779821" stroke="#06B6D4" stroke-width="1.5" stroke-linecap="round"/><rect x="115" y="80" width="44" height="60" fill="#1e2d3d" stroke="#374151" stroke-width="2" rx="2"/><polygon points="137,85 119.6,115 154.4,115" fill="#10B981" stroke="none" stroke-width="2"/><polygon points="142.19615242270663,119 142.19615242270663,125 137,128 131.80384757729337,125 131.80384757729337,119 137,116 " fill="#94A3B8" stroke="none" stroke-width="2"/><line x1="137" y1="90" x2="137" y2="105" stroke="#06B6D4" stroke-width="1.5" stroke-linecap="round"/><rect x="171" y="80" width="44" height="60" fill="#1e2d3d" stroke="#374151" stroke-width="2" rx="2"/><polygon points="193,93 201.4,105 193,117 184.6,105" fill="#F59E0B" stroke="none" stroke-width="2"/><polygon points="193,116 194.41068460550193,120.05835921350013 198.70633909777092,120.14589803375031 195.28253563910837,122.74164078649987 196.52671151375483,126.85410196624969 193,124.4 189.47328848624517,126.85410196624969 190.71746436089163,122.74164078649987 187.29366090222908,120.14589803375031 191.58931539449807,120.05835921350013" fill="#94A3B8"/><line x1="193" y1="90" x2="182.3933982822018" y2="100.60660171779821" stroke="#06B6D4" stroke-width="1.5" stroke-linecap="round"/><rect x="227" y="80" width="44" height="60" fill="#1e2d3d" stroke="#374151" stroke-width="2" rx="2"/><text x="249" y="116" text-anchor="middle" font-family="system-ui" font-size="24" font-weight="700" fill="#3B82F6">?</text>
<text x="150" y="214" text-anchor="middle" font-family="system-ui" font-size="9" fill="#475569">BPR-5 RA - Q12</text>
</svg>