<svg xmlns="http://www.w3.org/2000/svg" viewBox="0 0 300 220" width="300" height="220">
<rect width="300" height="220" fill="#1a2332" rx="12"/>
<rect x="3" y="80" width="44" height="60" fill="#1e2d3d" stroke="#374151" stroke-width="2" rx="2"/><polygon points="25,93 27.82136921100387,101.11671842700025 36.412678195541844,101.29179606750063 29.565071278216738,106.48328157299974 32.05342302750968,114.70820393249937 25,109.8 17.946576972490323,114.70820393249937 20.434928721783262,106.48328157299974 13.587321804458158,101.29179606750063 22.178630788996127,101.11671842700025" fill="#EF4444"/><rect x="59" y="80" width="44" height="60" fill="#1e2d3d" stroke="#374151" stroke-width="2" rx="2"/><circle cx="81" cy="105" r="16" fill="#10B981" stroke="none" stroke-width="2"/><rect x="115" y="80" width="44" height="60" fill="#1e2d3d" stroke="#374151" stroke-width="2" rx="2"/><rect x="117" y="85" width="40" height="40" fill="#F59E0B" stroke="none" stroke-width="2" rx="2"/><rect x="171" y="80" width="44" height="60" fill="#1e2d3d" stroke="#374151" stroke-width="2" rx="2"/><polygon points="193,93 182.56,111 203.44,111" fill="#3B82F6" stroke="none" stroke-width="2"/><rect x="227" y="80" width="44" height="60" fill="#1e2d3d" stroke="#374151" stroke-width="2" rx="2"/><text x="249" y="116" text-anchor="middle" font-family="system-ui" font-size="24" font-weight="700" fill="#3B82F6">?</text>
<text x="150" y="214" text-anchor="middle" font-family="system-ui" font-size="9" fill="#475569">BPR-5 RA - Q5</text>
</svg>