<svg xmlns="http://www.w3.org/2000/svg" viewBox="0 0 300 220" width="300" height="220">
<rect width="300" height="220" fill="#1a2332" rx="12"/>
<rect x="3" y="80" width="44" height="60" fill="#1e2d3d" stroke="#374151" stroke-width="2" rx="2"/><polygon points="25,93 14.56,111 35.44,111" fill="#10B981" stroke="none" stroke-width="2"/><polygon points="30.196152422706632,119 30.196152422706632,125 25,128 19.803847577293368,125 19.803847577293368,119 25,116 " fill="#94A3B8" stroke="none" stroke-width="2"/><line x1="25" y1="90" x2="40" y2="90" stroke="#06B6D4" stroke-width="1.5" stroke-linecap="round"/><rect x="59" y="80" width="44" height="60" fill="#1e2d3d" stroke="#374151" stroke-width="2" rx="2"/><polygon points="81,89 92.2,105 81,121 69.8,105" fill="#F59E0B" stroke="none" stroke-width="2"/><polygon points="81,116 82.41068460550194,120.05835921350013 86.70633909777092,120.14589803375031 83.28253563910837,122.74164078649987 84.52671151375483,126.85410196624969 81,124.4 77.47328848624517,126.85410196624969 78.71746436089163,122.74164078649987 75.29366090222908,120.14589803375031 79.58931539449806,120.05835921350013" fill="#94A3B8"/><line x1="81" y1="90" x2="91.60660171779821" y2="100.60660171779821" stroke="#06B6D4" stroke-width="1.5" stroke-linecap="round"/><rect x="115" y="80" width="44" height="60" fill="#1e2d3d" stroke="#374151" stroke-width="2" rx="2"/><polygon points="154.32050807568876,95 154.32050807568876,115 137,125 119.67949192431122,115 119.67949192431124,95 137,85 " fill="#3B82F6" stroke="none" stroke-width="2"/><circle cx="137" cy="122" r="6" fill="#94A3B8" stroke="none" stroke-width="2"/><line x1="137" y1="90" x2="137" y2="105" stroke="#06B6D4" stroke-width="1.5" stroke-linecap="round"/><rect x="171" y="80" width="44" height="60" fill="#1e2d3d" stroke="#374151" stroke-width="2" rx="2"/><polygon points="193,93 195.82136921100388,101.11671842700025 204.41267819554184,101.29179606750063 197.56507127821675,106.48328157299974 200.05342302750967,114.70820393249937 193,109.8 185.94657697249033,114.70820393249937 188.43492872178325,106.48328157299974 181.58732180445816,101.29179606750063 190.17863078899612,101.11671842700025" fill="#EF4444"/><rect x="187" y="116" width="12" height="12" fill="#94A3B8" stroke="none" stroke-width="2" rx="2"/><line x1="193" y1="90" x2="182.3933982822018" y2="100.60660171779821" stroke="#06B6D4" stroke-width="1.5" stroke-linecap="round"/><rect x="227" y="80" width="44" height="60" fill="#1e2d3d" stroke="#374151" stroke-width="2" rx="2"/><text x="249" y="116" text-anchor="middle" font-family="system-ui" font-size="24" font-weight="700" fill="#3B82F6">?</text>
<text x="150" y="214" text-anchor="middle" font-family="system-ui" font-size="9" fill="#475569">BPR-5 RA - Q14</text>
</svg>