<svg xmlns="http://www.w3.org/2000/svg" viewBox="0 0 300 200" width="300" height="200">
<rect width="300" height="200" fill="#1a2332" rx="12"/>
<circle cx="40" cy="100" r="32" fill="#243044" stroke="#475569" stroke-width="2"/><line x1="40" y1="74" x2="40" y2="70" stroke="#64748B" stroke-width="2" stroke-linecap="round"/><line x1="53" y1="77.4833395016046" x2="55" y2="74.01923788646684" stroke="#64748B" stroke-width="1" stroke-linecap="round"/><line x1="62.51666049839541" y1="87" x2="65.98076211353316" y2="85" stroke="#64748B" stroke-width="1" stroke-linecap="round"/><line x1="66" y1="100" x2="70" y2="100" stroke="#64748B" stroke-width="2" stroke-linecap="round"/><line x1="62.51666049839541" y1="113" x2="65.98076211353316" y2="115" stroke="#64748B" stroke-width="1" stroke-linecap="round"/><line x1="53" y1="122.5166604983954" x2="55" y2="125.98076211353316" stroke="#64748B" stroke-width="1" stroke-linecap="round"/><line x1="40" y1="126" x2="40" y2="130" stroke="#64748B" stroke-width="2" stroke-linecap="round"/><line x1="27.000000000000007" y1="122.51666049839541" x2="25.000000000000007" y2="125.98076211353316" stroke="#64748B" stroke-width="1" stroke-linecap="round"/><line x1="17.483339501604593" y1="113" x2="14.01923788646684" y2="115" stroke="#64748B" stroke-width="1" stroke-linecap="round"/><line x1="14" y1="100" x2="10" y2="100" stroke="#64748B" stroke-width="2" stroke-linecap="round"/><line x1="17.483339501604597" y1="87" x2="14.019237886466843" y2="85" stroke="#64748B" stroke-width="1" stroke-linecap="round"/><line x1="26.99999999999999" y1="77.4833395016046" x2="24.999999999999986" y2="74.01923788646684" stroke="#64748B" stroke-width="1" stroke-linecap="round"/><line x1="40" y1="100" x2="40" y2="84" stroke="#F1F5F9" stroke-width="2.5" stroke-linecap="round"/><line x1="40" y1="100" x2="40" y2="77.6" stroke="#3B82F6" stroke-width="1.5" stroke-linecap="round"/><circle cx="40" cy="100" r="2.5" fill="#F1F5F9" stroke="none" stroke-width="2"/><text x="40" y="148" text-anchor="middle" font-family="system-ui" font-size="10" fill="#94A3B8">12:00</text><text x="74" y="104" text-anchor="middle" font-family="system-ui" font-size="14" fill="#475569">→</text><circle cx="108" cy="100" r="32" fill="#243044" stroke="#475569" stroke-width="2"/><line x1="108" y1="74" x2="108" y2="70" stroke="#64748B" stroke-width="2" stroke-linecap="round"/><line x1="121" y1="77.4833395016046" x2="123" y2="74.01923788646684" stroke="#64748B" stroke-width="1" stroke-linecap="round"/><line x1="130.5166604983954" y1="87" x2="133.98076211353316" y2="85" stroke="#64748B" stroke-width="1" stroke-linecap="round"/><line x1="134" y1="100" x2="138" y2="100" stroke="#64748B" stroke-width="2" stroke-linecap="round"/><line x1="130.5166604983954" y1="113" x2="133.98076211353316" y2="115" stroke="#64748B" stroke-width="1" stroke-linecap="round"/><line x1="121" y1="122.5166604983954" x2="123" y2="125.98076211353316" stroke="#64748B" stroke-width="1" stroke-linecap="round"/><line x1="108" y1="126" x2="108" y2="130" stroke="#64748B" stroke-width="2" stroke-linecap="round"/><line x1="95" y1="122.51666049839541" x2="93" y2="125.98076211353316" stroke="#64748B" stroke-width="1" stroke-linecap="round"/><line x1="85.48333950160459" y1="113" x2="82.01923788646684" y2="115" stroke="#64748B" stroke-width="1" stroke-linecap="round"/><line x1="82" y1="100" x2="78" y2="100" stroke="#64748B" stroke-width="2" stroke-linecap="round"/><line x1="85.4833395016046" y1="87" x2="82.01923788646684" y2="85" stroke="#64748B" stroke-width="1" stroke-linecap="round"/><line x1="94.99999999999999" y1="77.4833395016046" x2="92.99999999999999" y2="74.01923788646684" stroke="#64748B" stroke-width="1" stroke-linecap="round"/><line x1="108" y1="100" x2="124" y2="100" stroke="#F1F5F9" stroke-width="2.5" stroke-linecap="round"/><line x1="108" y1="100" x2="108" y2="77.6" stroke="#3B82F6" stroke-width="1.5" stroke-linecap="round"/><circle cx="108" cy="100" r="2.5" fill="#F1F5F9" stroke="none" stroke-width="2"/><text x="108" y="148" text-anchor="middle" font-family="system-ui" font-size="10" fill="#94A3B8">3:00</text><text x="142" y="104" text-anchor="middle" font-family="system-ui" font-size="14" fill="#475569">→</text><circle cx="176" cy="100" r="32" fill="#243044" stroke="#475569" stroke-width="2"/><line x1="176" y1="74" x2="176" y2="70" stroke="#64748B" stroke-width="2" stroke-linecap="round"/><line x1="189" y1="77.4833395016046" x2="191" y2="74.01923788646684" stroke="#64748B" stroke-width="1" stroke-linecap="round"/><line x1="198.5166604983954" y1="87" x2="201.98076211353316" y2="85" stroke="#64748B" stroke-width="1" stroke-linecap="round"/><line x1="202" y1="100" x2="206" y2="100" stroke="#64748B" stroke-width="2" stroke-linecap="round"/><line x1="198.5166604983954" y1="113" x2="201.98076211353316" y2="115" stroke="#64748B" stroke-width="1" stroke-linecap="round"/><line x1="189" y1="122.5166604983954" x2="191" y2="125.98076211353316" stroke="#64748B" stroke-width="1" stroke-linecap="round"/><line x1="176" y1="126" x2="176" y2="130" stroke="#64748B" stroke-width="2" stroke-linecap="round"/><line x1="163" y1="122.51666049839541" x2="161" y2="125.98076211353316" stroke="#64748B" stroke-width="1" stroke-linecap="round"/><line x1="153.4833395016046" y1="113" x2="150.01923788646684" y2="115" stroke="#64748B" stroke-width="1" stroke-linecap="round"/><line x1="150" y1="100" x2="146" y2="100" stroke="#64748B" stroke-width="2" stroke-linecap="round"/><line x1="153.4833395016046" y1="87" x2="150.01923788646684" y2="85" stroke="#64748B" stroke-width="1" stroke-linecap="round"/><line x1="163" y1="77.4833395016046" x2="161" y2="74.01923788646684" stroke="#64748B" stroke-width="1" stroke-linecap="round"/><line x1="176" y1="100" x2="176" y2="116" stroke="#F1F5F9" stroke-width="2.5" stroke-linecap="round"/><line x1="176" y1="100" x2="176" y2="77.6" stroke="#3B82F6" stroke-width="1.5" stroke-linecap="round"/><circle cx="176" cy="100" r="2.5" fill="#F1F5F9" stroke="none" stroke-width="2"/><text x="176" y="148" text-anchor="middle" font-family="system-ui" font-size="10" fill="#94A3B8">6:00</text><text x="210" y="104" text-anchor="middle" font-family="system-ui" font-size="14" fill="#475569">→</text><circle cx="244" cy="100" r="32" fill="#243044" stroke="#475569" stroke-width="2"/><line x1="244" y1="74" x2="244" y2="70" stroke="#64748B" stroke-width="2" stroke-linecap="round"/><line x1="257" y1="77.4833395016046" x2="259" y2="74.01923788646684" stroke="#64748B" stroke-width="1" stroke-linecap="round"/><line x1="266.5166604983954" y1="87" x2="269.98076211353316" y2="85" stroke="#64748B" stroke-width="1" stroke-linecap="round"/><line x1="270" y1="100" x2="274" y2="100" stroke="#64748B" stroke-width="2" stroke-linecap="round"/><line x1="266.5166604983954" y1="113" x2="269.98076211353316" y2="115" stroke="#64748B" stroke-width="1" stroke-linecap="round"/><line x1="257" y1="122.5166604983954" x2="259" y2="125.98076211353316" stroke="#64748B" stroke-width="1" stroke-linecap="round"/><line x1="244" y1="126" x2="244" y2="130" stroke="#64748B" stroke-width="2" stroke-linecap="round"/><line x1="231" y1="122.51666049839541" x2="229" y2="125.98076211353316" stroke="#64748B" stroke-width="1" stroke-linecap="round"/><line x1="221.4833395016046" y1="113" x2="218.01923788646684" y2="115" stroke="#64748B" stroke-width="1" stroke-linecap="round"/><line x1="218" y1="100" x2="214" y2="100" stroke="#64748B" stroke-width="2" stroke-linecap="round"/><line x1="221.4833395016046" y1="87" x2="218.01923788646684" y2="85" stroke="#64748B" stroke-width="1" stroke-linecap="round"/><line x1="231" y1="77.4833395016046" x2="229" y2="74.01923788646684" stroke="#64748B" stroke-width="1" stroke-linecap="round"/><text x="244" y="108" text-anchor="middle" font-family="system-ui" font-size="24" font-weight="700" fill="#3B82F6">?</text>
<text x="150" y="194" text-anchor="middle" font-family="system-ui" font-size="9" fill="#475569">Relógios - Q15</text>
</svg>