<svg xmlns="http://www.w3.org/2000/svg" viewBox="0 0 280 250" width="280" height="250">
<rect width="280" height="250" fill="#1a2332" rx="12"/>
<rect x="52" y="17" width="86" height="86" fill="#1e2d3d" stroke="#374151" stroke-width="2" rx="2"/><polygon points="111.3678801315259,50.550000000000004 111.3678801315259,69.45 95,78.9 78.6321198684741,69.45 78.63211986847412,50.55 95,41.1 " fill="#8B5CF6" stroke="#475569" stroke-width="2"/><rect x="142" y="17" width="86" height="86" fill="#1e2d3d" stroke="#374151" stroke-width="2" rx="2"/><polygon points="185,37.05 190.3958686160449,52.57322399163798 206.82674704897377,52.90805997909496 193.73069881958952,62.836776008362015 198.48967154011225,78.56694002090504 185,69.18 171.51032845988775,78.56694002090504 176.26930118041048,62.836776008362015 163.17325295102623,52.90805997909495 179.6041313839551,52.57322399163798" fill="#F97316"/><rect x="52" y="107" width="86" height="86" fill="#1e2d3d" stroke="#374151" stroke-width="2" rx="2"/><polygon points="95,128.4 100.07846457980696,143.01009316860046 115.54282075197531,143.32523292150114 103.21712830079012,152.66990683139954 107.69616144951742,167.47476707849887 95,158.64 82.30383855048258,167.47476707849887 86.78287169920988,152.66990683139954 74.45717924802469,143.32523292150114 89.92153542019304,143.01009316860046" fill="#06B6D4"/><rect x="142" y="107" width="86" height="86" fill="#243044" stroke="#374151" stroke-width="2" rx="2"/><text x="185" y="158" text-anchor="middle" font-family="system-ui" font-size="28" font-weight="700" fill="#3B82F6">?</text><rect x="50" y="15" width="180" height="180" fill="none" stroke="#475569" stroke-width="2" rx="2"/>
<text x="140" y="244" text-anchor="middle" font-family="system-ui" font-size="9" fill="#475569">G-36 - Q1</text>
</svg>