<svg xmlns="http://www.w3.org/2000/svg" viewBox="0 0 280 250" width="280" height="250">
<rect width="280" height="250" fill="#1a2332" rx="12"/>
<rect x="44.5" y="17" width="61" height="61" fill="#1e2d3d" stroke="#374151" stroke-width="2" rx="2"/><polygon points="86.82124676165759,40.675000000000004 86.82124676165759,54.324999999999996 75,61.15 63.17875323834241,54.324999999999996 63.178753238342416,40.675 75,33.85 " fill="#8B5CF6" stroke="#475569" stroke-width="2"/><path d="M73.362 42.04 L76.638 42.04 L76.638 45.862 L80.46 45.862 L80.46 49.138 L76.638 49.138 L76.638 52.96 L73.362 52.96 L73.362 49.138 L69.54 49.138 L69.54 45.862 L73.362 45.862 Z" fill="#3B82F6" stroke="none" stroke-width="1.5"/><line x1="61.35" y1="47.5" x2="88.65" y2="47.5" stroke="#94A3B8" stroke-width="1.5" opacity="0.4"/><rect x="109.5" y="17" width="61" height="61" fill="#1e2d3d" stroke="#374151" stroke-width="2" rx="2"/><polygon points="140,30.925 143.8970162226991,42.1362173272941 155.76376175759216,42.37804331823525 146.30550470303686,49.548782672705904 149.74254055674774,60.90945668176475 140,54.13 130.25745944325226,60.90945668176475 133.69449529696314,49.548782672705904 124.23623824240784,42.37804331823524 136.1029837773009,42.1362173272941" fill="#F97316"/><circle cx="140" cy="47.5" r="6.63" fill="#EF4444" stroke="none" stroke-width="2"/><line x1="128.27970510183297" y1="35.779705101832974" x2="151.72029489816703" y2="59.220294898167026" stroke="#94A3B8" stroke-width="1.5" opacity="0.4"/><rect x="174.5" y="17" width="61" height="61" fill="#1e2d3d" stroke="#374151" stroke-width="2" rx="2"/><path d="M199.15 28 L210.85 28 L210.85 41.65 L224.5 41.65 L224.5 53.35 L210.85 53.35 L210.85 67 L199.15 67 L199.15 53.35 L185.5 53.35 L185.5 41.65 L199.15 41.65 Z" fill="#06B6D4" stroke="#475569" stroke-width="1.5"/><rect x="197.2" y="39.7" width="15.600000000000001" height="15.600000000000001" fill="#10B981" stroke="none" stroke-width="2" rx="2"/><line x1="205" y1="28" x2="205" y2="67" stroke="#94A3B8" stroke-width="1.5" opacity="0.4"/><rect x="44.5" y="82" width="61" height="61" fill="#1e2d3d" stroke="#374151" stroke-width="2" rx="2"/><polygon points="75,96.9 78.66777997430503,107.45173395510032 89.83648165420439,107.67933488775083 80.93459266168176,114.42826604489967 84.16944993576259,125.12066511224918 75,118.74 65.83055006423743,125.12066511224918 69.06540733831824,114.42826604489967 60.16351834579561,107.67933488775081 71.33222002569497,107.45173395510032" fill="#06B6D4"/><circle cx="75" cy="112.5" r="6.239999999999999" fill="#10B981" stroke="none" stroke-width="2"/><line x1="61.49000370096276" y1="104.7" x2="88.50999629903724" y2="120.3" stroke="#94A3B8" stroke-width="1.5" opacity="0.4"/><rect x="109.5" y="82" width="61" height="61" fill="#1e2d3d" stroke="#374151" stroke-width="2" rx="2"/><path d="M134.4425 93.975 L145.5575 93.975 L145.5575 106.9425 L158.525 106.9425 L158.525 118.0575 L145.5575 118.0575 L145.5575 131.025 L134.4425 131.025 L134.4425 118.0575 L121.475 118.0575 L121.475 106.9425 L134.4425 106.9425 Z" fill="#3B82F6" stroke="#475569" stroke-width="1.5"/><rect x="132.59" y="105.09" width="14.82" height="14.82" fill="#F59E0B" stroke="none" stroke-width="2" rx="2"/><line x1="135.2053771894758" y1="94.60622406799502" x2="144.7946228105242" y2="130.39377593200498" stroke="#94A3B8" stroke-width="1.5" opacity="0.4"/><rect x="174.5" y="82" width="61" height="61" fill="#1e2d3d" stroke="#374151" stroke-width="2" rx="2"/><circle cx="205" cy="112.5" r="21.450000000000003" fill="#EF4444" stroke="#475569" stroke-width="2"/><polygon points="205,103.92 197.5354,116.79 212.4646,116.79" fill="#8B5CF6" stroke="none" stroke-width="2"/><line x1="215.725" y1="93.92375508882378" x2="194.275" y2="131.07624491117622" stroke="#94A3B8" stroke-width="1.5" opacity="0.4"/><rect x="44.5" y="147" width="61" height="61" fill="#1e2d3d" stroke="#374151" stroke-width="2" rx="2"/><path d="M69.735 159.95 L80.265 159.95 L80.265 172.235 L92.55 172.235 L92.55 182.765 L80.265 182.765 L80.265 195.05 L69.735 195.05 L69.735 182.765 L57.45 182.765 L57.45 172.235 L69.735 172.235 Z" fill="#EF4444" stroke="#475569" stroke-width="1.5"/><rect x="67.98" y="170.48" width="14.04" height="14.04" fill="#8B5CF6" stroke="none" stroke-width="2" rx="2"/><line x1="66.225" y1="162.3012541635831" x2="83.775" y2="192.6987458364169" stroke="#94A3B8" stroke-width="1.5" opacity="0.4"/><rect x="109.5" y="147" width="61" height="61" fill="#1e2d3d" stroke="#374151" stroke-width="2" rx="2"/><circle cx="140" cy="177.5" r="20.475" fill="#10B981" stroke="#475569" stroke-width="2"/><polygon points="140,169.31 132.8747,181.595 147.1253,181.595" fill="#F97316" stroke="none" stroke-width="2"/><line x1="145.2993199484741" y1="157.72266870673133" x2="134.7006800515259" y2="197.27733129326867" stroke="#94A3B8" stroke-width="1.5" opacity="0.4"/><rect x="174.5" y="147" width="61" height="61" fill="#243044" stroke="#374151" stroke-width="2" rx="2"/><text x="205" y="185.5" text-anchor="middle" font-family="system-ui" font-size="28" font-weight="700" fill="#3B82F6">?</text><rect x="42.5" y="15" width="195" height="195" fill="none" stroke="#475569" stroke-width="2" rx="2"/>
<text x="140" y="244" text-anchor="middle" font-family="system-ui" font-size="9" fill="#475569">G-36 - Q17</text>
</svg>