<svg xmlns="http://www.w3.org/2000/svg" viewBox="0 0 280 250" width="280" height="250">
<rect width="280" height="250" fill="#1a2332" rx="12"/>
<rect x="44.5" y="17" width="61" height="61" fill="#1e2d3d" stroke="#374151" stroke-width="2" rx="2"/><polygon points="75,33.85 78.2093074775169,43.08276721071279 87.98192144742885,43.281918026781966 80.19276857897154,49.187232789287215 83.02326869379226,58.54308197321803 75,52.96 66.97673130620774,58.54308197321803 69.80723142102846,49.187232789287215 62.018078552571154,43.281918026781966 71.7906925224831,43.08276721071279" fill="#F97316"/><circle cx="75" cy="47.5" r="5.46" fill="#EF4444" stroke="none" stroke-width="2"/><line x1="61.35" y1="47.5" x2="88.65" y2="47.5" stroke="#94A3B8" stroke-width="1.5" opacity="0.4"/><rect x="109.5" y="17" width="61" height="61" fill="#1e2d3d" stroke="#374151" stroke-width="2" rx="2"/><path d="M135.0275 30.925 L144.9725 30.925 L144.9725 42.5275 L156.575 42.5275 L156.575 52.4725 L144.9725 52.4725 L144.9725 64.075 L135.0275 64.075 L135.0275 52.4725 L123.425 52.4725 L123.425 42.5275 L135.0275 42.5275 Z" fill="#06B6D4" stroke="#475569" stroke-width="1.5"/><rect x="133.37" y="40.87" width="13.26" height="13.26" fill="#10B981" stroke="none" stroke-width="2" rx="2"/><line x1="128.27970510183297" y1="35.779705101832974" x2="151.72029489816703" y2="59.220294898167026" stroke="#94A3B8" stroke-width="1.5" opacity="0.4"/><rect x="174.5" y="17" width="61" height="61" fill="#1e2d3d" stroke="#374151" stroke-width="2" rx="2"/><circle cx="205" cy="47.5" r="19.5" fill="#3B82F6" stroke="#475569" stroke-width="2"/><polygon points="205,39.7 198.214,51.4 211.786,51.4" fill="#F59E0B" stroke="none" stroke-width="2"/><line x1="205" y1="28" x2="205" y2="67" stroke="#94A3B8" stroke-width="1.5" opacity="0.4"/><rect x="44.5" y="82" width="61" height="61" fill="#1e2d3d" stroke="#374151" stroke-width="2" rx="2"/><path d="M70.32000000000001 96.9 L79.67999999999999 96.9 L79.67999999999999 107.82000000000001 L90.6 107.82000000000001 L90.6 117.17999999999999 L79.67999999999999 117.17999999999999 L79.67999999999999 128.1 L70.32000000000001 128.1 L70.32000000000001 117.17999999999999 L59.400000000000006 117.17999999999999 L59.400000000000006 107.82000000000001 L70.32000000000001 107.82000000000001 Z" fill="#3B82F6" stroke="#475569" stroke-width="1.5"/><rect x="68.76" y="106.26" width="12.479999999999999" height="12.479999999999999" fill="#F59E0B" stroke="none" stroke-width="2" rx="2"/><line x1="61.49000370096276" y1="104.7" x2="88.50999629903724" y2="120.3" stroke="#94A3B8" stroke-width="1.5" opacity="0.4"/><rect x="109.5" y="82" width="61" height="61" fill="#1e2d3d" stroke="#374151" stroke-width="2" rx="2"/><circle cx="140" cy="112.5" r="18.525" fill="#EF4444" stroke="#475569" stroke-width="2"/><polygon points="140,105.09 133.5533,116.205 146.4467,116.205" fill="#8B5CF6" stroke="none" stroke-width="2"/><line x1="135.2053771894758" y1="94.60622406799502" x2="144.7946228105242" y2="130.39377593200498" stroke="#94A3B8" stroke-width="1.5" opacity="0.4"/><rect x="174.5" y="82" width="61" height="61" fill="#1e2d3d" stroke="#374151" stroke-width="2" rx="2"/><rect x="183.55" y="91.05" width="42.900000000000006" height="42.900000000000006" fill="#10B981" stroke="#475569" stroke-width="2" rx="2"/><polygon points="205,103.92 211.006,112.5 205,121.08 198.994,112.5" fill="#F97316" stroke="none" stroke-width="2"/><line x1="215.725" y1="93.92375508882378" x2="194.275" y2="131.07624491117622" stroke="#94A3B8" stroke-width="1.5" opacity="0.4"/><rect x="44.5" y="147" width="61" height="61" fill="#1e2d3d" stroke="#374151" stroke-width="2" rx="2"/><circle cx="75" cy="177.5" r="17.549999999999997" fill="#10B981" stroke="#475569" stroke-width="2"/><polygon points="75,170.48 68.8926,181.01 81.1074,181.01" fill="#F97316" stroke="none" stroke-width="2"/><line x1="66.225" y1="162.3012541635831" x2="83.775" y2="192.6987458364169" stroke="#94A3B8" stroke-width="1.5" opacity="0.4"/><rect x="109.5" y="147" width="61" height="61" fill="#1e2d3d" stroke="#374151" stroke-width="2" rx="2"/><rect x="119.525" y="157.025" width="40.95" height="40.95" fill="#F59E0B" stroke="#475569" stroke-width="2" rx="2"/><polygon points="140,169.31 145.733,177.5 140,185.69 134.267,177.5" fill="#06B6D4" stroke="none" stroke-width="2"/><line x1="145.2993199484741" y1="157.72266870673133" x2="134.7006800515259" y2="197.27733129326867" stroke="#94A3B8" stroke-width="1.5" opacity="0.4"/><rect x="174.5" y="147" width="61" height="61" fill="#243044" stroke="#374151" stroke-width="2" rx="2"/><text x="205" y="185.5" text-anchor="middle" font-family="system-ui" font-size="28" font-weight="700" fill="#3B82F6">?</text><rect x="42.5" y="15" width="195" height="195" fill="none" stroke="#475569" stroke-width="2" rx="2"/>
<text x="140" y="244" text-anchor="middle" font-family="system-ui" font-size="9" fill="#475569">Raven - Q16</text>
</svg>