<svg xmlns="http://www.w3.org/2000/svg" viewBox="0 0 200 240" width="200" height="240"><rect width="200" height="240" fill="#1a2332" rx="16"/><rect x="80" y="152" width="40" height="30" fill="#F5D0A9" rx="4"/><ellipse cx="100" cy="207" rx="65" ry="35" fill="#243044"/><ellipse cx="100" cy="97" rx="55" ry="62" fill="#F5D0A9"/><ellipse cx="45" cy="100" rx="8" ry="12" fill="#F5D0A9"/><ellipse cx="155" cy="100" rx="8" ry="12" fill="#F5D0A9"/><path d="M48 82 Q50 50 100 42 Q150 50 152 82" fill="#1A1A2E"/><ellipse cx="100" cy="57" rx="52" ry="22" fill="#1A1A2E"/><ellipse cx="78" cy="94" rx="10" ry="7" fill="white"/><ellipse cx="122" cy="94" rx="10" ry="7" fill="white"/><circle cx="78" cy="94" r="5" fill="#4A3728"/><circle cx="122" cy="94" r="5" fill="#4A3728"/><circle cx="79" cy="93" r="2" fill="white" opacity="0.6"/><circle cx="123" cy="93" r="2" fill="white" opacity="0.6"/><circle cx="78" cy="94" r="2.5" fill="#111"/><circle cx="122" cy="94" r="2.5" fill="#111"/><path d="M65 80 Q78 75 90 80" stroke="#121220" stroke-width="2.5" fill="none" stroke-linecap="round"/><path d="M110 80 Q122 75 135 80" stroke="#121220" stroke-width="2.5" fill="none" stroke-linecap="round"/><circle cx="78" cy="94" r="14" fill="none" stroke="#333" stroke-width="2"/><circle cx="122" cy="94" r="14" fill="none" stroke="#333" stroke-width="2"/><line x1="92" y1="94" x2="108" y2="94" stroke="#333" stroke-width="2"/><line x1="64" y1="94" x2="45" y2="90" stroke="#333" stroke-width="1.5"/><line x1="136" y1="94" x2="155" y2="90" stroke="#333" stroke-width="1.5"/><path d="M95 104 Q100 114 105 104" stroke="#d0b190" stroke-width="1.5" fill="none"/><circle cx="93" cy="108" r="2" fill="#ddbb98"/><circle cx="107" cy="108" r="2" fill="#ddbb98"/><path d="M85 124 Q100 128 115 124" stroke="#ac9276" stroke-width="2" fill="none" stroke-linecap="round"/><path d="M60 107 Q58 132 75 150 Q100 162 125 150 Q142 132 140 107" fill="#151525" opacity="0.8"/><text x="100" y="232" text-anchor="middle" font-family="system-ui" font-size="11" font-weight="600" fill="#475569">Rosto 1</text></svg>