<svg xmlns="http://www.w3.org/2000/svg" viewBox="0 0 200 240" width="200" height="240"><rect width="200" height="240" fill="#1a2332" rx="16"/><rect x="80" y="158" width="40" height="30" fill="#8D5524" rx="4"/><ellipse cx="100" cy="213" rx="65" ry="35" fill="#243044"/><ellipse cx="100" cy="103" rx="55" ry="62" fill="#8D5524"/><ellipse cx="45" cy="106" rx="8" ry="12" fill="#8D5524"/><ellipse cx="155" cy="106" rx="8" ry="12" fill="#8D5524"/><path d="M45 103 Q48 53 100 43 Q152 53 155 103" fill="#1A1A2E"/><circle cx="50" cy="53" r="8" fill="#1A1A2E"/><circle cx="64" cy="57.66019542983613" r="8" fill="#1A1A2E"/><circle cx="78" cy="56.377315902755754" r="8" fill="#1A1A2E"/><circle cx="92" cy="50.78739778352574" r="8" fill="#1A1A2E"/><circle cx="106" cy="48.0191769558208" r="8" fill="#1A1A2E"/><circle cx="120" cy="51.60292250900537" r="8" fill="#1A1A2E"/><circle cx="134" cy="56.968339319245764" r="8" fill="#1A1A2E"/><circle cx="148" cy="57.2729945404414" r="8" fill="#1A1A2E"/><circle cx="55" cy="47" r="7" fill="#1A1A2E"/><circle cx="71" cy="43.28294880667081" r="7" fill="#1A1A2E"/><circle cx="87" cy="39.04003001359822" r="7" fill="#1A1A2E"/><circle cx="103" cy="42.15681680227688" r="7" fill="#1A1A2E"/><circle cx="119" cy="46.84068114660146" r="7" fill="#1A1A2E"/><circle cx="135" cy="44.3865412713401" r="7" fill="#1A1A2E"/><ellipse cx="78" cy="100" rx="10" ry="7" fill="white"/><ellipse cx="122" cy="100" rx="10" ry="7" fill="white"/><circle cx="78" cy="100" r="5" fill="#5D4037"/><circle cx="122" cy="100" r="5" fill="#5D4037"/><circle cx="79" cy="99" r="2" fill="white" opacity="0.6"/><circle cx="123" cy="99" r="2" fill="white" opacity="0.6"/><circle cx="78" cy="100" r="2.5" fill="#111"/><circle cx="122" cy="100" r="2.5" fill="#111"/><path d="M65 86 Q78 81 90 86" stroke="#121220" stroke-width="2.5" fill="none" stroke-linecap="round"/><path d="M110 86 Q122 81 135 86" stroke="#121220" stroke-width="2.5" fill="none" stroke-linecap="round"/><path d="M95 110 Q100 120 105 110" stroke="#78481f" stroke-width="1.5" fill="none"/><circle cx="93" cy="114" r="2" fill="#7f4d20"/><circle cx="107" cy="114" r="2" fill="#7f4d20"/><path d="M82 130 Q100 142 118 130" stroke="#633b19" stroke-width="2" fill="none" stroke-linecap="round"/><path d="M88 132 Q100 140 112 132" fill="white" opacity="0.8"/><path d="M85 128 Q82 143 90 153 Q100 160 110 153 Q118 143 115 128" fill="#151525" opacity="0.7"/><path d="M40 73 Q45 43 100 36 Q155 43 160 73" fill="#243044"/><rect x="38" y="70" width="124" height="8" fill="#1a2332" rx="4"/><path d="M38 74 Q20 73 25 80 L38 78" fill="#1a2332"/><text x="100" y="232" text-anchor="middle" font-family="system-ui" font-size="11" font-weight="600" fill="#475569">Rosto 8</text></svg>