<svg xmlns="http://www.w3.org/2000/svg" viewBox="0 0 200 240" width="200" height="240"><rect width="200" height="240" fill="#1a2332" rx="16"/><rect x="80" y="152" width="40" height="30" fill="#D4A574" rx="4"/><ellipse cx="100" cy="207" rx="65" ry="35" fill="#243044"/><ellipse cx="100" cy="97" rx="55" ry="62" fill="#D4A574"/><ellipse cx="45" cy="100" rx="8" ry="12" fill="#D4A574"/><ellipse cx="155" cy="100" rx="8" ry="12" fill="#D4A574"/><path d="M45 97 Q48 47 100 37 Q152 47 155 97" fill="#D4A017"/><path d="M55 72 Q70 82 85 77 Q75 57 65 62" fill="#D4A017"/><ellipse cx="78" cy="94" rx="10" ry="7" fill="white"/><ellipse cx="122" cy="94" rx="10" ry="7" fill="white"/><path d="M65 80 Q78 75 90 80" stroke="#947010" stroke-width="2.5" fill="none" stroke-linecap="round"/><path d="M110 80 Q122 75 135 80" stroke="#947010" stroke-width="2.5" fill="none" stroke-linecap="round"/><path d="M62 84 Q78 80 92 84 L92 102 Q78 108 62 102 Z" fill="#1A1A2E" stroke="#333" stroke-width="1.5"/><path d="M108 84 Q122 80 138 84 L138 102 Q122 108 108 102 Z" fill="#1A1A2E" stroke="#333" stroke-width="1.5"/><line x1="92" y1="92" x2="108" y2="92" stroke="#333" stroke-width="2"/><line x1="62" y1="90" x2="45" y2="88" stroke="#333" stroke-width="1.5"/><line x1="138" y1="90" x2="155" y2="88" stroke="#333" stroke-width="1.5"/><path d="M95 104 Q100 114 105 104" stroke="#b48c63" stroke-width="1.5" fill="none"/><circle cx="93" cy="108" r="2" fill="#bf9568"/><circle cx="107" cy="108" r="2" fill="#bf9568"/><path d="M85 124 Q100 128 115 124" stroke="#947351" stroke-width="2" fill="none" stroke-linecap="round"/><text x="100" y="232" text-anchor="middle" font-family="system-ui" font-size="11" font-weight="600" fill="#475569">Rosto 23</text></svg>