<svg xmlns="http://www.w3.org/2000/svg" viewBox="0 0 200 240" width="200" height="240"><rect width="200" height="240" fill="#1a2332" rx="16"/><rect x="80" y="152" width="40" height="30" fill="#FFDBB4" rx="4"/><ellipse cx="100" cy="207" rx="65" ry="35" fill="#243044"/><ellipse cx="100" cy="97" rx="55" ry="62" fill="#FFDBB4"/><ellipse cx="45" cy="100" rx="8" ry="12" fill="#FFDBB4"/><ellipse cx="155" cy="100" rx="8" ry="12" fill="#FFDBB4"/><circle cx="45" cy="115" r="4" fill="#FFD700" stroke="#DAA520" stroke-width="1"/><circle cx="155" cy="115" r="4" fill="#FFD700" stroke="#DAA520" stroke-width="1"/><path d="M42 122 Q45 42 100 34 Q155 42 158 122" fill="#D4A017"/><rect x="42" y="112" width="18" height="60" fill="#D4A017" rx="8"/><rect x="140" y="112" width="18" height="60" fill="#D4A017" rx="8"/><path d="M52 72 Q75 87 95 77 Q80 52 60 57" fill="#D4A017"/><ellipse cx="78" cy="94" rx="10" ry="7" fill="white"/><ellipse cx="122" cy="94" rx="10" ry="7" fill="white"/><circle cx="78" cy="94" r="5" fill="#1B5E20"/><circle cx="122" cy="94" r="5" fill="#1B5E20"/><circle cx="79" cy="93" r="2" fill="white" opacity="0.6"/><circle cx="123" cy="93" r="2" fill="white" opacity="0.6"/><circle cx="78" cy="94" r="2.5" fill="#111"/><circle cx="122" cy="94" r="2.5" fill="#111"/><path d="M65 80 Q78 75 90 80" stroke="#947010" stroke-width="2.5" fill="none" stroke-linecap="round"/><path d="M110 80 Q122 75 135 80" stroke="#947010" stroke-width="2.5" fill="none" stroke-linecap="round"/><path d="M95 104 Q100 114 105 104" stroke="#d9ba99" stroke-width="1.5" fill="none"/><circle cx="93" cy="108" r="2" fill="#e6c5a2"/><circle cx="107" cy="108" r="2" fill="#e6c5a2"/><path d="M82 124 Q100 136 118 124" stroke="#b3997e" stroke-width="2" fill="none" stroke-linecap="round"/><path d="M88 126 Q100 134 112 126" fill="white" opacity="0.8"/><text x="100" y="232" text-anchor="middle" font-family="system-ui" font-size="11" font-weight="600" fill="#475569">Rosto 16</text></svg>