<svg xmlns="http://www.w3.org/2000/svg" viewBox="0 0 200 240" width="200" height="240"><rect width="200" height="240" fill="#1a2332" rx="16"/><rect x="80" y="152" width="40" height="30" fill="#C68642" rx="4"/><ellipse cx="100" cy="207" rx="65" ry="35" fill="#243044"/><ellipse cx="100" cy="97" rx="55" ry="62" fill="#C68642"/><ellipse cx="45" cy="100" rx="8" ry="12" fill="#C68642"/><ellipse cx="155" cy="100" rx="8" ry="12" fill="#C68642"/><path d="M48 82 Q50 57 100 52 Q150 57 152 82" fill="#bc7f3f" opacity="0.3"/><path d="M85 57 Q90 22 100 17 Q110 22 115 57" fill="#1A1A2E"/><ellipse cx="78" cy="94" rx="10" ry="7" fill="white"/><ellipse cx="122" cy="94" rx="10" ry="7" fill="white"/><circle cx="78" cy="94" r="5" fill="#2E86AB"/><circle cx="122" cy="94" r="5" fill="#2E86AB"/><circle cx="79" cy="93" r="2" fill="white" opacity="0.6"/><circle cx="123" cy="93" r="2" fill="white" opacity="0.6"/><circle cx="78" cy="94" r="2.5" fill="#111"/><circle cx="122" cy="94" r="2.5" fill="#111"/><path d="M65 80 Q78 75 90 80" stroke="#121220" stroke-width="2.5" fill="none" stroke-linecap="round"/><path d="M110 80 Q122 75 135 80" stroke="#121220" stroke-width="2.5" fill="none" stroke-linecap="round"/><rect x="64" y="82" width="28" height="24" rx="3" fill="none" stroke="#333" stroke-width="2"/><rect x="108" y="82" width="28" height="24" rx="3" fill="none" stroke="#333" stroke-width="2"/><line x1="92" y1="94" x2="108" y2="94" stroke="#333" stroke-width="2"/><line x1="64" y1="94" x2="45" y2="90" stroke="#333" stroke-width="1.5"/><line x1="136" y1="94" x2="155" y2="90" stroke="#333" stroke-width="1.5"/><path d="M95 104 Q100 114 105 104" stroke="#a87238" stroke-width="1.5" fill="none"/><circle cx="93" cy="108" r="2" fill="#b2793b"/><circle cx="107" cy="108" r="2" fill="#b2793b"/><path d="M85 124 Q100 128 115 124" stroke="#8b5e2e" stroke-width="2" fill="none" stroke-linecap="round"/><circle cx="86" cy="117" r="0.8" fill="#151525" opacity="0.4"/><circle cx="90" cy="117" r="0.8" fill="#151525" opacity="0.4"/><circle cx="94" cy="117" r="0.8" fill="#151525" opacity="0.4"/><circle cx="98" cy="117" r="0.8" fill="#151525" opacity="0.4"/><circle cx="102" cy="117" r="0.8" fill="#151525" opacity="0.4"/><circle cx="106" cy="117" r="0.8" fill="#151525" opacity="0.4"/><circle cx="110" cy="117" r="0.8" fill="#151525" opacity="0.4"/><circle cx="114" cy="117" r="0.8" fill="#151525" opacity="0.4"/><circle cx="78" cy="121" r="0.8" fill="#151525" opacity="0.4"/><circle cx="82" cy="121" r="0.8" fill="#151525" opacity="0.4"/><circle cx="86" cy="121" r="0.8" fill="#151525" opacity="0.4"/><circle cx="90" cy="121" r="0.8" fill="#151525" opacity="0.4"/><circle cx="94" cy="121" r="0.8" fill="#151525" opacity="0.4"/><circle cx="98" cy="121" r="0.8" fill="#151525" opacity="0.4"/><circle cx="102" cy="121" r="0.8" fill="#151525" opacity="0.4"/><circle cx="106" cy="121" r="0.8" fill="#151525" opacity="0.4"/><circle cx="110" cy="121" r="0.8" fill="#151525" opacity="0.4"/><circle cx="114" cy="121" r="0.8" fill="#151525" opacity="0.4"/><circle cx="118" cy="121" r="0.8" fill="#151525" opacity="0.4"/><circle cx="122" cy="121" r="0.8" fill="#151525" opacity="0.4"/><circle cx="74" cy="125" r="0.8" fill="#151525" opacity="0.4"/><circle cx="78" cy="125" r="0.8" fill="#151525" opacity="0.4"/><circle cx="82" cy="125" r="0.8" fill="#151525" opacity="0.4"/><circle cx="86" cy="125" r="0.8" fill="#151525" opacity="0.4"/><circle cx="90" cy="125" r="0.8" fill="#151525" opacity="0.4"/><circle cx="94" cy="125" r="0.8" fill="#151525" opacity="0.4"/><circle cx="98" cy="125" r="0.8" fill="#151525" opacity="0.4"/><circle cx="102" cy="125" r="0.8" fill="#151525" opacity="0.4"/><circle cx="106" cy="125" r="0.8" fill="#151525" opacity="0.4"/><circle cx="110" cy="125" r="0.8" fill="#151525" opacity="0.4"/><circle cx="114" cy="125" r="0.8" fill="#151525" opacity="0.4"/><circle cx="118" cy="125" r="0.8" fill="#151525" opacity="0.4"/><circle cx="122" cy="125" r="0.8" fill="#151525" opacity="0.4"/><circle cx="126" cy="125" r="0.8" fill="#151525" opacity="0.4"/><circle cx="74" cy="129" r="0.8" fill="#151525" opacity="0.4"/><circle cx="78" cy="129" r="0.8" fill="#151525" opacity="0.4"/><circle cx="82" cy="129" r="0.8" fill="#151525" opacity="0.4"/><circle cx="86" cy="129" r="0.8" fill="#151525" opacity="0.4"/><circle cx="90" cy="129" r="0.8" fill="#151525" opacity="0.4"/><circle cx="94" cy="129" r="0.8" fill="#151525" opacity="0.4"/><circle cx="98" cy="129" r="0.8" fill="#151525" opacity="0.4"/><circle cx="102" cy="129" r="0.8" fill="#151525" opacity="0.4"/><circle cx="106" cy="129" r="0.8" fill="#151525" opacity="0.4"/><circle cx="110" cy="129" r="0.8" fill="#151525" opacity="0.4"/><circle cx="114" cy="129" r="0.8" fill="#151525" opacity="0.4"/><circle cx="118" cy="129" r="0.8" fill="#151525" opacity="0.4"/><circle cx="122" cy="129" r="0.8" fill="#151525" opacity="0.4"/><circle cx="126" cy="129" r="0.8" fill="#151525" opacity="0.4"/><circle cx="74" cy="133" r="0.8" fill="#151525" opacity="0.4"/><circle cx="78" cy="133" r="0.8" fill="#151525" opacity="0.4"/><circle cx="82" cy="133" r="0.8" fill="#151525" opacity="0.4"/><circle cx="86" cy="133" r="0.8" fill="#151525" opacity="0.4"/><circle cx="90" cy="133" r="0.8" fill="#151525" opacity="0.4"/><circle cx="94" cy="133" r="0.8" fill="#151525" opacity="0.4"/><circle cx="98" cy="133" r="0.8" fill="#151525" opacity="0.4"/><circle cx="102" cy="133" r="0.8" fill="#151525" opacity="0.4"/><circle cx="106" cy="133" r="0.8" fill="#151525" opacity="0.4"/><circle cx="110" cy="133" r="0.8" fill="#151525" opacity="0.4"/><circle cx="114" cy="133" r="0.8" fill="#151525" opacity="0.4"/><circle cx="118" cy="133" r="0.8" fill="#151525" opacity="0.4"/><circle cx="122" cy="133" r="0.8" fill="#151525" opacity="0.4"/><circle cx="126" cy="133" r="0.8" fill="#151525" opacity="0.4"/><circle cx="74" cy="137" r="0.8" fill="#151525" opacity="0.4"/><circle cx="78" cy="137" r="0.8" fill="#151525" opacity="0.4"/><circle cx="82" cy="137" r="0.8" fill="#151525" opacity="0.4"/><circle cx="86" cy="137" r="0.8" fill="#151525" opacity="0.4"/><circle cx="90" cy="137" r="0.8" fill="#151525" opacity="0.4"/><circle cx="94" cy="137" r="0.8" fill="#151525" opacity="0.4"/><circle cx="98" cy="137" r="0.8" fill="#151525" opacity="0.4"/><circle cx="102" cy="137" r="0.8" fill="#151525" opacity="0.4"/><circle cx="106" cy="137" r="0.8" fill="#151525" opacity="0.4"/><circle cx="110" cy="137" r="0.8" fill="#151525" opacity="0.4"/><circle cx="114" cy="137" r="0.8" fill="#151525" opacity="0.4"/><circle cx="118" cy="137" r="0.8" fill="#151525" opacity="0.4"/><circle cx="122" cy="137" r="0.8" fill="#151525" opacity="0.4"/><circle cx="126" cy="137" r="0.8" fill="#151525" opacity="0.4"/><circle cx="78" cy="141" r="0.8" fill="#151525" opacity="0.4"/><circle cx="82" cy="141" r="0.8" fill="#151525" opacity="0.4"/><circle cx="86" cy="141" r="0.8" fill="#151525" opacity="0.4"/><circle cx="90" cy="141" r="0.8" fill="#151525" opacity="0.4"/><circle cx="94" cy="141" r="0.8" fill="#151525" opacity="0.4"/><circle cx="98" cy="141" r="0.8" fill="#151525" opacity="0.4"/><circle cx="102" cy="141" r="0.8" fill="#151525" opacity="0.4"/><circle cx="106" cy="141" r="0.8" fill="#151525" opacity="0.4"/><circle cx="110" cy="141" r="0.8" fill="#151525" opacity="0.4"/><circle cx="114" cy="141" r="0.8" fill="#151525" opacity="0.4"/><circle cx="118" cy="141" r="0.8" fill="#151525" opacity="0.4"/><circle cx="122" cy="141" r="0.8" fill="#151525" opacity="0.4"/><circle cx="82" cy="145" r="0.8" fill="#151525" opacity="0.4"/><circle cx="86" cy="145" r="0.8" fill="#151525" opacity="0.4"/><circle cx="90" cy="145" r="0.8" fill="#151525" opacity="0.4"/><circle cx="94" cy="145" r="0.8" fill="#151525" opacity="0.4"/><circle cx="98" cy="145" r="0.8" fill="#151525" opacity="0.4"/><circle cx="102" cy="145" r="0.8" fill="#151525" opacity="0.4"/><circle cx="106" cy="145" r="0.8" fill="#151525" opacity="0.4"/><circle cx="110" cy="145" r="0.8" fill="#151525" opacity="0.4"/><circle cx="114" cy="145" r="0.8" fill="#151525" opacity="0.4"/><circle cx="118" cy="145" r="0.8" fill="#151525" opacity="0.4"/><text x="100" y="232" text-anchor="middle" font-family="system-ui" font-size="11" font-weight="600" fill="#475569">Rosto 15</text></svg>