<svg xmlns="http://www.w3.org/2000/svg" viewBox="0 0 200 240" width="200" height="240"><rect width="200" height="240" fill="#1a2332" rx="16"/><rect x="80" y="158" width="40" height="30" fill="#E8B88A" rx="4"/><ellipse cx="100" cy="213" rx="65" ry="35" fill="#243044"/><ellipse cx="100" cy="103" rx="55" ry="62" fill="#E8B88A"/><ellipse cx="45" cy="106" rx="8" ry="12" fill="#E8B88A"/><ellipse cx="155" cy="106" rx="8" ry="12" fill="#E8B88A"/><path d="M48 88 Q50 56 100 48 Q150 56 152 88" fill="#2F2F2F"/><ellipse cx="100" cy="63" rx="52" ry="22" fill="#2F2F2F"/><ellipse cx="78" cy="100" rx="10" ry="7" fill="white"/><ellipse cx="122" cy="100" rx="10" ry="7" fill="white"/><circle cx="78" cy="100" r="5" fill="#4A3728"/><circle cx="122" cy="100" r="5" fill="#4A3728"/><circle cx="79" cy="99" r="2" fill="white" opacity="0.6"/><circle cx="123" cy="99" r="2" fill="white" opacity="0.6"/><circle cx="78" cy="100" r="2.5" fill="#111"/><circle cx="122" cy="100" r="2.5" fill="#111"/><path d="M65 86 Q78 81 90 86" stroke="#212121" stroke-width="2.5" fill="none" stroke-linecap="round"/><path d="M110 86 Q122 81 135 86" stroke="#212121" stroke-width="2.5" fill="none" stroke-linecap="round"/><path d="M95 110 Q100 120 105 110" stroke="#c59c75" stroke-width="1.5" fill="none"/><circle cx="93" cy="114" r="2" fill="#d1a67c"/><circle cx="107" cy="114" r="2" fill="#d1a67c"/><path d="M85 130 Q100 134 115 130" stroke="#a28161" stroke-width="2" fill="none" stroke-linecap="round"/><circle cx="86" cy="123" r="0.8" fill="#262626" opacity="0.4"/><circle cx="90" cy="123" r="0.8" fill="#262626" opacity="0.4"/><circle cx="94" cy="123" r="0.8" fill="#262626" opacity="0.4"/><circle cx="98" cy="123" r="0.8" fill="#262626" opacity="0.4"/><circle cx="102" cy="123" r="0.8" fill="#262626" opacity="0.4"/><circle cx="106" cy="123" r="0.8" fill="#262626" opacity="0.4"/><circle cx="110" cy="123" r="0.8" fill="#262626" opacity="0.4"/><circle cx="114" cy="123" r="0.8" fill="#262626" opacity="0.4"/><circle cx="78" cy="127" r="0.8" fill="#262626" opacity="0.4"/><circle cx="82" cy="127" r="0.8" fill="#262626" opacity="0.4"/><circle cx="86" cy="127" r="0.8" fill="#262626" opacity="0.4"/><circle cx="90" cy="127" r="0.8" fill="#262626" opacity="0.4"/><circle cx="94" cy="127" r="0.8" fill="#262626" opacity="0.4"/><circle cx="98" cy="127" r="0.8" fill="#262626" opacity="0.4"/><circle cx="102" cy="127" r="0.8" fill="#262626" opacity="0.4"/><circle cx="106" cy="127" r="0.8" fill="#262626" opacity="0.4"/><circle cx="110" cy="127" r="0.8" fill="#262626" opacity="0.4"/><circle cx="114" cy="127" r="0.8" fill="#262626" opacity="0.4"/><circle cx="118" cy="127" r="0.8" fill="#262626" opacity="0.4"/><circle cx="122" cy="127" r="0.8" fill="#262626" opacity="0.4"/><circle cx="74" cy="131" r="0.8" fill="#262626" opacity="0.4"/><circle cx="78" cy="131" r="0.8" fill="#262626" opacity="0.4"/><circle cx="82" cy="131" r="0.8" fill="#262626" opacity="0.4"/><circle cx="86" cy="131" r="0.8" fill="#262626" opacity="0.4"/><circle cx="90" cy="131" r="0.8" fill="#262626" opacity="0.4"/><circle cx="94" cy="131" r="0.8" fill="#262626" opacity="0.4"/><circle cx="98" cy="131" r="0.8" fill="#262626" opacity="0.4"/><circle cx="102" cy="131" r="0.8" fill="#262626" opacity="0.4"/><circle cx="106" cy="131" r="0.8" fill="#262626" opacity="0.4"/><circle cx="110" cy="131" r="0.8" fill="#262626" opacity="0.4"/><circle cx="114" cy="131" r="0.8" fill="#262626" opacity="0.4"/><circle cx="118" cy="131" r="0.8" fill="#262626" opacity="0.4"/><circle cx="122" cy="131" r="0.8" fill="#262626" opacity="0.4"/><circle cx="126" cy="131" r="0.8" fill="#262626" opacity="0.4"/><circle cx="74" cy="135" r="0.8" fill="#262626" opacity="0.4"/><circle cx="78" cy="135" r="0.8" fill="#262626" opacity="0.4"/><circle cx="82" cy="135" r="0.8" fill="#262626" opacity="0.4"/><circle cx="86" cy="135" r="0.8" fill="#262626" opacity="0.4"/><circle cx="90" cy="135" r="0.8" fill="#262626" opacity="0.4"/><circle cx="94" cy="135" r="0.8" fill="#262626" opacity="0.4"/><circle cx="98" cy="135" r="0.8" fill="#262626" opacity="0.4"/><circle cx="102" cy="135" r="0.8" fill="#262626" opacity="0.4"/><circle cx="106" cy="135" r="0.8" fill="#262626" opacity="0.4"/><circle cx="110" cy="135" r="0.8" fill="#262626" opacity="0.4"/><circle cx="114" cy="135" r="0.8" fill="#262626" opacity="0.4"/><circle cx="118" cy="135" r="0.8" fill="#262626" opacity="0.4"/><circle cx="122" cy="135" r="0.8" fill="#262626" opacity="0.4"/><circle cx="126" cy="135" r="0.8" fill="#262626" opacity="0.4"/><circle cx="74" cy="139" r="0.8" fill="#262626" opacity="0.4"/><circle cx="78" cy="139" r="0.8" fill="#262626" opacity="0.4"/><circle cx="82" cy="139" r="0.8" fill="#262626" opacity="0.4"/><circle cx="86" cy="139" r="0.8" fill="#262626" opacity="0.4"/><circle cx="90" cy="139" r="0.8" fill="#262626" opacity="0.4"/><circle cx="94" cy="139" r="0.8" fill="#262626" opacity="0.4"/><circle cx="98" cy="139" r="0.8" fill="#262626" opacity="0.4"/><circle cx="102" cy="139" r="0.8" fill="#262626" opacity="0.4"/><circle cx="106" cy="139" r="0.8" fill="#262626" opacity="0.4"/><circle cx="110" cy="139" r="0.8" fill="#262626" opacity="0.4"/><circle cx="114" cy="139" r="0.8" fill="#262626" opacity="0.4"/><circle cx="118" cy="139" r="0.8" fill="#262626" opacity="0.4"/><circle cx="122" cy="139" r="0.8" fill="#262626" opacity="0.4"/><circle cx="126" cy="139" r="0.8" fill="#262626" opacity="0.4"/><circle cx="74" cy="143" r="0.8" fill="#262626" opacity="0.4"/><circle cx="78" cy="143" r="0.8" fill="#262626" opacity="0.4"/><circle cx="82" cy="143" r="0.8" fill="#262626" opacity="0.4"/><circle cx="86" cy="143" r="0.8" fill="#262626" opacity="0.4"/><circle cx="90" cy="143" r="0.8" fill="#262626" opacity="0.4"/><circle cx="94" cy="143" r="0.8" fill="#262626" opacity="0.4"/><circle cx="98" cy="143" r="0.8" fill="#262626" opacity="0.4"/><circle cx="102" cy="143" r="0.8" fill="#262626" opacity="0.4"/><circle cx="106" cy="143" r="0.8" fill="#262626" opacity="0.4"/><circle cx="110" cy="143" r="0.8" fill="#262626" opacity="0.4"/><circle cx="114" cy="143" r="0.8" fill="#262626" opacity="0.4"/><circle cx="118" cy="143" r="0.8" fill="#262626" opacity="0.4"/><circle cx="122" cy="143" r="0.8" fill="#262626" opacity="0.4"/><circle cx="126" cy="143" r="0.8" fill="#262626" opacity="0.4"/><circle cx="78" cy="147" r="0.8" fill="#262626" opacity="0.4"/><circle cx="82" cy="147" r="0.8" fill="#262626" opacity="0.4"/><circle cx="86" cy="147" r="0.8" fill="#262626" opacity="0.4"/><circle cx="90" cy="147" r="0.8" fill="#262626" opacity="0.4"/><circle cx="94" cy="147" r="0.8" fill="#262626" opacity="0.4"/><circle cx="98" cy="147" r="0.8" fill="#262626" opacity="0.4"/><circle cx="102" cy="147" r="0.8" fill="#262626" opacity="0.4"/><circle cx="106" cy="147" r="0.8" fill="#262626" opacity="0.4"/><circle cx="110" cy="147" r="0.8" fill="#262626" opacity="0.4"/><circle cx="114" cy="147" r="0.8" fill="#262626" opacity="0.4"/><circle cx="118" cy="147" r="0.8" fill="#262626" opacity="0.4"/><circle cx="122" cy="147" r="0.8" fill="#262626" opacity="0.4"/><circle cx="82" cy="151" r="0.8" fill="#262626" opacity="0.4"/><circle cx="86" cy="151" r="0.8" fill="#262626" opacity="0.4"/><circle cx="90" cy="151" r="0.8" fill="#262626" opacity="0.4"/><circle cx="94" cy="151" r="0.8" fill="#262626" opacity="0.4"/><circle cx="98" cy="151" r="0.8" fill="#262626" opacity="0.4"/><circle cx="102" cy="151" r="0.8" fill="#262626" opacity="0.4"/><circle cx="106" cy="151" r="0.8" fill="#262626" opacity="0.4"/><circle cx="110" cy="151" r="0.8" fill="#262626" opacity="0.4"/><circle cx="114" cy="151" r="0.8" fill="#262626" opacity="0.4"/><circle cx="118" cy="151" r="0.8" fill="#262626" opacity="0.4"/><path d="M45 78 Q48 43 100 33 Q152 43 155 78" fill="#2F2F2F"/><rect x="45" y="70" width="110" height="10" fill="#3F3F3F" rx="5"/><circle cx="100" cy="33" r="6" fill="#4F4F4F"/><text x="100" y="232" text-anchor="middle" font-family="system-ui" font-size="11" font-weight="600" fill="#475569">Rosto 10</text></svg>