<svg xmlns="http://www.w3.org/2000/svg" viewBox="0 0 200 240" width="200" height="240"><rect width="200" height="240" fill="#1a2332" rx="16"/><rect x="80" y="152" width="40" height="30" fill="#FFDBB4" rx="4"/><ellipse cx="100" cy="207" rx="65" ry="35" fill="#243044"/><ellipse cx="100" cy="97" rx="55" ry="62" fill="#FFDBB4"/><ellipse cx="45" cy="100" rx="8" ry="12" fill="#FFDBB4"/><ellipse cx="155" cy="100" rx="8" ry="12" fill="#FFDBB4"/><ellipse cx="100" cy="57" rx="48" ry="15" fill="#f2d0ab" opacity="0.3"/><ellipse cx="78" cy="94" rx="10" ry="7" fill="white"/><ellipse cx="122" cy="94" rx="10" ry="7" fill="white"/><circle cx="78" cy="94" r="5" fill="#4A3728"/><circle cx="122" cy="94" r="5" fill="#4A3728"/><circle cx="79" cy="93" r="2" fill="white" opacity="0.6"/><circle cx="123" cy="93" r="2" fill="white" opacity="0.6"/><circle cx="78" cy="94" r="2.5" fill="#111"/><circle cx="122" cy="94" r="2.5" fill="#111"/><line x1="65" y1="80" x2="90" y2="78" stroke="#121220" stroke-width="2.5" stroke-linecap="round"/><line x1="110" y1="78" x2="135" y2="80" stroke="#121220" stroke-width="2.5" stroke-linecap="round"/><path d="M95 104 Q100 114 105 104" stroke="#d9ba99" stroke-width="1.5" fill="none"/><circle cx="93" cy="108" r="2" fill="#e6c5a2"/><circle cx="107" cy="108" r="2" fill="#e6c5a2"/><line x1="85" y1="124" x2="115" y2="124" stroke="#b3997e" stroke-width="2" stroke-linecap="round"/><circle cx="86" cy="117" r="0.8" fill="#A0A0A0" opacity="0.4"/><circle cx="90" cy="117" r="0.8" fill="#A0A0A0" opacity="0.4"/><circle cx="94" cy="117" r="0.8" fill="#A0A0A0" opacity="0.4"/><circle cx="98" cy="117" r="0.8" fill="#A0A0A0" opacity="0.4"/><circle cx="102" cy="117" r="0.8" fill="#A0A0A0" opacity="0.4"/><circle cx="106" cy="117" r="0.8" fill="#A0A0A0" opacity="0.4"/><circle cx="110" cy="117" r="0.8" fill="#A0A0A0" opacity="0.4"/><circle cx="114" cy="117" r="0.8" fill="#A0A0A0" opacity="0.4"/><circle cx="78" cy="121" r="0.8" fill="#A0A0A0" opacity="0.4"/><circle cx="82" cy="121" r="0.8" fill="#A0A0A0" opacity="0.4"/><circle cx="86" cy="121" r="0.8" fill="#A0A0A0" opacity="0.4"/><circle cx="90" cy="121" r="0.8" fill="#A0A0A0" opacity="0.4"/><circle cx="94" cy="121" r="0.8" fill="#A0A0A0" opacity="0.4"/><circle cx="98" cy="121" r="0.8" fill="#A0A0A0" opacity="0.4"/><circle cx="102" cy="121" r="0.8" fill="#A0A0A0" opacity="0.4"/><circle cx="106" cy="121" r="0.8" fill="#A0A0A0" opacity="0.4"/><circle cx="110" cy="121" r="0.8" fill="#A0A0A0" opacity="0.4"/><circle cx="114" cy="121" r="0.8" fill="#A0A0A0" opacity="0.4"/><circle cx="118" cy="121" r="0.8" fill="#A0A0A0" opacity="0.4"/><circle cx="122" cy="121" r="0.8" fill="#A0A0A0" opacity="0.4"/><circle cx="74" cy="125" r="0.8" fill="#A0A0A0" opacity="0.4"/><circle cx="78" cy="125" r="0.8" fill="#A0A0A0" opacity="0.4"/><circle cx="82" cy="125" r="0.8" fill="#A0A0A0" opacity="0.4"/><circle cx="86" cy="125" r="0.8" fill="#A0A0A0" opacity="0.4"/><circle cx="90" cy="125" r="0.8" fill="#A0A0A0" opacity="0.4"/><circle cx="94" cy="125" r="0.8" fill="#A0A0A0" opacity="0.4"/><circle cx="98" cy="125" r="0.8" fill="#A0A0A0" opacity="0.4"/><circle cx="102" cy="125" r="0.8" fill="#A0A0A0" opacity="0.4"/><circle cx="106" cy="125" r="0.8" fill="#A0A0A0" opacity="0.4"/><circle cx="110" cy="125" r="0.8" fill="#A0A0A0" opacity="0.4"/><circle cx="114" cy="125" r="0.8" fill="#A0A0A0" opacity="0.4"/><circle cx="118" cy="125" r="0.8" fill="#A0A0A0" opacity="0.4"/><circle cx="122" cy="125" r="0.8" fill="#A0A0A0" opacity="0.4"/><circle cx="126" cy="125" r="0.8" fill="#A0A0A0" opacity="0.4"/><circle cx="74" cy="129" r="0.8" fill="#A0A0A0" opacity="0.4"/><circle cx="78" cy="129" r="0.8" fill="#A0A0A0" opacity="0.4"/><circle cx="82" cy="129" r="0.8" fill="#A0A0A0" opacity="0.4"/><circle cx="86" cy="129" r="0.8" fill="#A0A0A0" opacity="0.4"/><circle cx="90" cy="129" r="0.8" fill="#A0A0A0" opacity="0.4"/><circle cx="94" cy="129" r="0.8" fill="#A0A0A0" opacity="0.4"/><circle cx="98" cy="129" r="0.8" fill="#A0A0A0" opacity="0.4"/><circle cx="102" cy="129" r="0.8" fill="#A0A0A0" opacity="0.4"/><circle cx="106" cy="129" r="0.8" fill="#A0A0A0" opacity="0.4"/><circle cx="110" cy="129" r="0.8" fill="#A0A0A0" opacity="0.4"/><circle cx="114" cy="129" r="0.8" fill="#A0A0A0" opacity="0.4"/><circle cx="118" cy="129" r="0.8" fill="#A0A0A0" opacity="0.4"/><circle cx="122" cy="129" r="0.8" fill="#A0A0A0" opacity="0.4"/><circle cx="126" cy="129" r="0.8" fill="#A0A0A0" opacity="0.4"/><circle cx="74" cy="133" r="0.8" fill="#A0A0A0" opacity="0.4"/><circle cx="78" cy="133" r="0.8" fill="#A0A0A0" opacity="0.4"/><circle cx="82" cy="133" r="0.8" fill="#A0A0A0" opacity="0.4"/><circle cx="86" cy="133" r="0.8" fill="#A0A0A0" opacity="0.4"/><circle cx="90" cy="133" r="0.8" fill="#A0A0A0" opacity="0.4"/><circle cx="94" cy="133" r="0.8" fill="#A0A0A0" opacity="0.4"/><circle cx="98" cy="133" r="0.8" fill="#A0A0A0" opacity="0.4"/><circle cx="102" cy="133" r="0.8" fill="#A0A0A0" opacity="0.4"/><circle cx="106" cy="133" r="0.8" fill="#A0A0A0" opacity="0.4"/><circle cx="110" cy="133" r="0.8" fill="#A0A0A0" opacity="0.4"/><circle cx="114" cy="133" r="0.8" fill="#A0A0A0" opacity="0.4"/><circle cx="118" cy="133" r="0.8" fill="#A0A0A0" opacity="0.4"/><circle cx="122" cy="133" r="0.8" fill="#A0A0A0" opacity="0.4"/><circle cx="126" cy="133" r="0.8" fill="#A0A0A0" opacity="0.4"/><circle cx="74" cy="137" r="0.8" fill="#A0A0A0" opacity="0.4"/><circle cx="78" cy="137" r="0.8" fill="#A0A0A0" opacity="0.4"/><circle cx="82" cy="137" r="0.8" fill="#A0A0A0" opacity="0.4"/><circle cx="86" cy="137" r="0.8" fill="#A0A0A0" opacity="0.4"/><circle cx="90" cy="137" r="0.8" fill="#A0A0A0" opacity="0.4"/><circle cx="94" cy="137" r="0.8" fill="#A0A0A0" opacity="0.4"/><circle cx="98" cy="137" r="0.8" fill="#A0A0A0" opacity="0.4"/><circle cx="102" cy="137" r="0.8" fill="#A0A0A0" opacity="0.4"/><circle cx="106" cy="137" r="0.8" fill="#A0A0A0" opacity="0.4"/><circle cx="110" cy="137" r="0.8" fill="#A0A0A0" opacity="0.4"/><circle cx="114" cy="137" r="0.8" fill="#A0A0A0" opacity="0.4"/><circle cx="118" cy="137" r="0.8" fill="#A0A0A0" opacity="0.4"/><circle cx="122" cy="137" r="0.8" fill="#A0A0A0" opacity="0.4"/><circle cx="126" cy="137" r="0.8" fill="#A0A0A0" opacity="0.4"/><circle cx="78" cy="141" r="0.8" fill="#A0A0A0" opacity="0.4"/><circle cx="82" cy="141" r="0.8" fill="#A0A0A0" opacity="0.4"/><circle cx="86" cy="141" r="0.8" fill="#A0A0A0" opacity="0.4"/><circle cx="90" cy="141" r="0.8" fill="#A0A0A0" opacity="0.4"/><circle cx="94" cy="141" r="0.8" fill="#A0A0A0" opacity="0.4"/><circle cx="98" cy="141" r="0.8" fill="#A0A0A0" opacity="0.4"/><circle cx="102" cy="141" r="0.8" fill="#A0A0A0" opacity="0.4"/><circle cx="106" cy="141" r="0.8" fill="#A0A0A0" opacity="0.4"/><circle cx="110" cy="141" r="0.8" fill="#A0A0A0" opacity="0.4"/><circle cx="114" cy="141" r="0.8" fill="#A0A0A0" opacity="0.4"/><circle cx="118" cy="141" r="0.8" fill="#A0A0A0" opacity="0.4"/><circle cx="122" cy="141" r="0.8" fill="#A0A0A0" opacity="0.4"/><circle cx="82" cy="145" r="0.8" fill="#A0A0A0" opacity="0.4"/><circle cx="86" cy="145" r="0.8" fill="#A0A0A0" opacity="0.4"/><circle cx="90" cy="145" r="0.8" fill="#A0A0A0" opacity="0.4"/><circle cx="94" cy="145" r="0.8" fill="#A0A0A0" opacity="0.4"/><circle cx="98" cy="145" r="0.8" fill="#A0A0A0" opacity="0.4"/><circle cx="102" cy="145" r="0.8" fill="#A0A0A0" opacity="0.4"/><circle cx="106" cy="145" r="0.8" fill="#A0A0A0" opacity="0.4"/><circle cx="110" cy="145" r="0.8" fill="#A0A0A0" opacity="0.4"/><circle cx="114" cy="145" r="0.8" fill="#A0A0A0" opacity="0.4"/><circle cx="118" cy="145" r="0.8" fill="#A0A0A0" opacity="0.4"/><path d="M105 134 L110 142 L107 150" stroke="#C0A080" stroke-width="1.5" fill="none" stroke-linecap="round" opacity="0.6"/><path d="M62 90 Q65 93 68 90" stroke="#e6c5a2" stroke-width="0.8" fill="none" opacity="0.4"/><path d="M132 90 Q135 93 138 90" stroke="#e6c5a2" stroke-width="0.8" fill="none" opacity="0.4"/><path d="M80 128 Q85 130 90 128" stroke="#e6c5a2" stroke-width="0.6" fill="none" opacity="0.3"/><path d="M110 128 Q115 130 120 128" stroke="#e6c5a2" stroke-width="0.6" fill="none" opacity="0.3"/><text x="100" y="232" text-anchor="middle" font-family="system-ui" font-size="11" font-weight="600" fill="#475569">Rosto 22</text></svg>