<svg xmlns="http://www.w3.org/2000/svg" viewBox="0 0 200 240" width="200" height="240"><rect width="200" height="240" fill="#1a2332" rx="16"/><rect x="80" y="152" width="40" height="30" fill="#8D5524" rx="4"/><ellipse cx="100" cy="207" rx="65" ry="35" fill="#243044"/><ellipse cx="100" cy="97" rx="55" ry="62" fill="#8D5524"/><ellipse cx="45" cy="100" rx="8" ry="12" fill="#8D5524"/><ellipse cx="155" cy="100" rx="8" ry="12" fill="#8D5524"/><circle cx="45" cy="115" r="4" fill="#FFD700" stroke="#DAA520" stroke-width="1"/><circle cx="155" cy="115" r="4" fill="#FFD700" stroke="#DAA520" stroke-width="1"/><path d="M48 82 Q50 50 100 42 Q150 50 152 82" fill="#1A1A2E"/><ellipse cx="100" cy="57" rx="52" ry="22" fill="#1A1A2E"/><ellipse cx="78" cy="94" rx="10" ry="7" fill="white"/><ellipse cx="122" cy="94" rx="10" ry="7" fill="white"/><circle cx="78" cy="94" r="5" fill="#4A3728"/><circle cx="122" cy="94" r="5" fill="#4A3728"/><circle cx="79" cy="93" r="2" fill="white" opacity="0.6"/><circle cx="123" cy="93" r="2" fill="white" opacity="0.6"/><circle cx="78" cy="94" r="2.5" fill="#111"/><circle cx="122" cy="94" r="2.5" fill="#111"/><path d="M65 80 Q78 75 90 80" stroke="#121220" stroke-width="2.5" fill="none" stroke-linecap="round"/><path d="M110 80 Q122 75 135 80" stroke="#121220" stroke-width="2.5" fill="none" stroke-linecap="round"/><path d="M95 104 Q100 114 105 104" stroke="#78481f" stroke-width="1.5" fill="none"/><circle cx="93" cy="108" r="2" fill="#7f4d20"/><circle cx="107" cy="108" r="2" fill="#7f4d20"/><path d="M82 124 Q100 136 118 124" stroke="#633b19" stroke-width="2" fill="none" stroke-linecap="round"/><path d="M88 126 Q100 134 112 126" fill="white" opacity="0.8"/><text x="100" y="232" text-anchor="middle" font-family="system-ui" font-size="11" font-weight="600" fill="#475569">Rosto 30</text></svg>