<svg xmlns="http://www.w3.org/2000/svg" viewBox="0 0 200 240" width="200" height="240"><rect width="200" height="240" fill="#1a2332" rx="16"/><rect x="80" y="152" width="40" height="30" fill="#C68642" rx="4"/><ellipse cx="100" cy="207" rx="65" ry="35" fill="#243044"/><ellipse cx="100" cy="97" rx="55" ry="62" fill="#C68642"/><ellipse cx="45" cy="100" rx="8" ry="12" fill="#C68642"/><ellipse cx="155" cy="100" rx="8" ry="12" fill="#C68642"/><path d="M48 82 Q50 47 100 37 Q150 47 152 82" fill="#1A1A2E"/><ellipse cx="100" cy="54" rx="50" ry="20" fill="#1A1A2E"/><path d="M140 72 Q165 82 160 117 Q155 132 145 137" stroke="#1A1A2E" stroke-width="12" fill="none" stroke-linecap="round"/><ellipse cx="78" cy="94" rx="10" ry="7" fill="white"/><ellipse cx="122" cy="94" rx="10" ry="7" fill="white"/><circle cx="78" cy="94" r="5" fill="#4A3728"/><circle cx="122" cy="94" r="5" fill="#4A3728"/><circle cx="79" cy="93" r="2" fill="white" opacity="0.6"/><circle cx="123" cy="93" r="2" fill="white" opacity="0.6"/><circle cx="78" cy="94" r="2.5" fill="#111"/><circle cx="122" cy="94" r="2.5" fill="#111"/><line x1="65" y1="80" x2="90" y2="78" stroke="#121220" stroke-width="2.5" stroke-linecap="round"/><line x1="110" y1="78" x2="135" y2="80" stroke="#121220" stroke-width="2.5" stroke-linecap="round"/><path d="M95 104 Q100 114 105 104" stroke="#a87238" stroke-width="1.5" fill="none"/><circle cx="93" cy="108" r="2" fill="#b2793b"/><circle cx="107" cy="108" r="2" fill="#b2793b"/><line x1="85" y1="124" x2="115" y2="124" stroke="#8b5e2e" stroke-width="2" stroke-linecap="round"/><text x="100" y="232" text-anchor="middle" font-family="system-ui" font-size="11" font-weight="600" fill="#475569">Rosto 27</text></svg>