<svg xmlns="http://www.w3.org/2000/svg" viewBox="0 0 200 240" width="200" height="240"><rect width="200" height="240" fill="#1a2332" rx="16"/><rect x="80" y="152" width="40" height="30" fill="#8D5524" rx="4"/><ellipse cx="100" cy="207" rx="65" ry="35" fill="#243044"/><ellipse cx="100" cy="97" rx="55" ry="62" fill="#8D5524"/><ellipse cx="45" cy="100" rx="8" ry="12" fill="#8D5524"/><ellipse cx="155" cy="100" rx="8" ry="12" fill="#8D5524"/><path d="M45 97 Q48 47 100 37 Q152 47 155 97" fill="#1A1A2E"/><circle cx="50" cy="47" r="8" fill="#1A1A2E"/><circle cx="64" cy="51.66019542983613" r="8" fill="#1A1A2E"/><circle cx="78" cy="50.377315902755754" r="8" fill="#1A1A2E"/><circle cx="92" cy="44.78739778352574" r="8" fill="#1A1A2E"/><circle cx="106" cy="42.0191769558208" r="8" fill="#1A1A2E"/><circle cx="120" cy="45.60292250900537" r="8" fill="#1A1A2E"/><circle cx="134" cy="50.968339319245764" r="8" fill="#1A1A2E"/><circle cx="148" cy="51.2729945404414" r="8" fill="#1A1A2E"/><circle cx="55" cy="41" r="7" fill="#1A1A2E"/><circle cx="71" cy="37.28294880667081" r="7" fill="#1A1A2E"/><circle cx="87" cy="33.04003001359822" r="7" fill="#1A1A2E"/><circle cx="103" cy="36.15681680227688" r="7" fill="#1A1A2E"/><circle cx="119" cy="40.84068114660146" r="7" fill="#1A1A2E"/><circle cx="135" cy="38.3865412713401" r="7" fill="#1A1A2E"/><ellipse cx="78" cy="94" rx="10" ry="7" fill="white"/><ellipse cx="122" cy="94" rx="10" ry="7" fill="white"/><circle cx="78" cy="94" r="5" fill="#5D4037"/><circle cx="122" cy="94" r="5" fill="#5D4037"/><circle cx="79" cy="93" r="2" fill="white" opacity="0.6"/><circle cx="123" cy="93" r="2" fill="white" opacity="0.6"/><circle cx="78" cy="94" r="2.5" fill="#111"/><circle cx="122" cy="94" r="2.5" fill="#111"/><path d="M65 77 Q78 71 90 77" stroke="#121220" stroke-width="2.5" fill="none" stroke-linecap="round"/><path d="M110 77 Q122 71 135 77" stroke="#121220" stroke-width="2.5" fill="none" stroke-linecap="round"/><path d="M95 104 Q100 114 105 104" stroke="#78481f" stroke-width="1.5" fill="none"/><circle cx="93" cy="108" r="2" fill="#7f4d20"/><circle cx="107" cy="108" r="2" fill="#7f4d20"/><ellipse cx="100" cy="127" rx="8" ry="10" fill="#6a401b"/><ellipse cx="100" cy="127" rx="6" ry="8" fill="#2a1520"/><text x="100" y="232" text-anchor="middle" font-family="system-ui" font-size="11" font-weight="600" fill="#475569">Rosto 19</text></svg>