<svg xmlns="http://www.w3.org/2000/svg" viewBox="0 0 200 240" width="200" height="240"><rect width="200" height="240" fill="#1a2332" rx="16"/><rect x="80" y="158" width="40" height="30" fill="#FFDBB4" rx="4"/><ellipse cx="100" cy="213" rx="65" ry="35" fill="#243044"/><ellipse cx="100" cy="103" rx="55" ry="62" fill="#FFDBB4"/><ellipse cx="45" cy="106" rx="8" ry="12" fill="#FFDBB4"/><ellipse cx="155" cy="106" rx="8" ry="12" fill="#FFDBB4"/><path d="M48 88 Q50 56 100 48 Q150 56 152 88" fill="#4A2511"/><ellipse cx="100" cy="63" rx="52" ry="22" fill="#4A2511"/><ellipse cx="78" cy="100" rx="10" ry="7" fill="white"/><ellipse cx="122" cy="100" rx="10" ry="7" fill="white"/><circle cx="78" cy="100" r="5" fill="#2E86AB"/><circle cx="122" cy="100" r="5" fill="#2E86AB"/><circle cx="79" cy="99" r="2" fill="white" opacity="0.6"/><circle cx="123" cy="99" r="2" fill="white" opacity="0.6"/><circle cx="78" cy="100" r="2.5" fill="#111"/><circle cx="122" cy="100" r="2.5" fill="#111"/><path d="M65 86 Q78 81 90 86" stroke="#341a0c" stroke-width="2.5" fill="none" stroke-linecap="round"/><path d="M110 86 Q122 81 135 86" stroke="#341a0c" stroke-width="2.5" fill="none" stroke-linecap="round"/><path d="M95 110 Q100 120 105 110" stroke="#d9ba99" stroke-width="1.5" fill="none"/><circle cx="93" cy="114" r="2" fill="#e6c5a2"/><circle cx="107" cy="114" r="2" fill="#e6c5a2"/><path d="M85 130 Q100 134 115 130" stroke="#b3997e" stroke-width="2" fill="none" stroke-linecap="round"/><path d="M85 128 Q82 143 90 153 Q100 160 110 153 Q118 143 115 128" fill="#3b1e0e" opacity="0.7"/><path d="M45 78 Q48 43 100 33 Q152 43 155 78" fill="#2F2F2F"/><rect x="45" y="70" width="110" height="10" fill="#3F3F3F" rx="5"/><circle cx="100" cy="33" r="6" fill="#4F4F4F"/><text x="100" y="232" text-anchor="middle" font-family="system-ui" font-size="11" font-weight="600" fill="#475569">Rosto 28</text></svg>