<svg xmlns="http://www.w3.org/2000/svg" viewBox="0 0 200 240" width="200" height="240"><rect width="200" height="240" fill="#1a2332" rx="16"/><rect x="80" y="152" width="40" height="30" fill="#D4A574" rx="4"/><ellipse cx="100" cy="207" rx="65" ry="35" fill="#243044"/><ellipse cx="100" cy="97" rx="55" ry="62" fill="#D4A574"/><ellipse cx="45" cy="100" rx="8" ry="12" fill="#D4A574"/><ellipse cx="155" cy="100" rx="8" ry="12" fill="#D4A574"/><ellipse cx="100" cy="57" rx="48" ry="15" fill="#c99d6e" opacity="0.3"/><ellipse cx="78" cy="94" rx="10" ry="7" fill="white"/><ellipse cx="122" cy="94" rx="10" ry="7" fill="white"/><circle cx="78" cy="94" r="5" fill="#37474F"/><circle cx="122" cy="94" r="5" fill="#37474F"/><circle cx="79" cy="93" r="2" fill="white" opacity="0.6"/><circle cx="123" cy="93" r="2" fill="white" opacity="0.6"/><circle cx="78" cy="94" r="2.5" fill="#111"/><circle cx="122" cy="94" r="2.5" fill="#111"/><line x1="65" y1="80" x2="90" y2="78" stroke="#121220" stroke-width="2.5" stroke-linecap="round"/><line x1="110" y1="78" x2="135" y2="80" stroke="#121220" stroke-width="2.5" stroke-linecap="round"/><path d="M95 104 Q100 114 105 104" stroke="#b48c63" stroke-width="1.5" fill="none"/><circle cx="93" cy="108" r="2" fill="#bf9568"/><circle cx="107" cy="108" r="2" fill="#bf9568"/><line x1="85" y1="124" x2="115" y2="124" stroke="#947351" stroke-width="2" stroke-linecap="round"/><path d="M105 134 L110 142 L107 150" stroke="#C0A080" stroke-width="1.5" fill="none" stroke-linecap="round" opacity="0.6"/><text x="100" y="232" text-anchor="middle" font-family="system-ui" font-size="11" font-weight="600" fill="#475569">Rosto 6</text></svg>