<svg xmlns="http://www.w3.org/2000/svg" viewBox="0 0 200 240" width="200" height="240"><rect width="200" height="240" fill="#1a2332" rx="16"/><rect x="80" y="152" width="40" height="30" fill="#F5D0A9" rx="4"/><ellipse cx="100" cy="207" rx="65" ry="35" fill="#243044"/><ellipse cx="100" cy="97" rx="55" ry="62" fill="#F5D0A9"/><ellipse cx="45" cy="100" rx="8" ry="12" fill="#F5D0A9"/><ellipse cx="155" cy="100" rx="8" ry="12" fill="#F5D0A9"/><circle cx="45" cy="115" r="4" fill="#FFD700" stroke="#DAA520" stroke-width="1"/><circle cx="155" cy="115" r="4" fill="#FFD700" stroke="#DAA520" stroke-width="1"/><path d="M45 97 Q48 47 100 37 Q152 47 155 97" fill="#C4721A"/><circle cx="50" cy="47" r="8" fill="#C4721A"/><circle cx="64" cy="51.66019542983613" r="8" fill="#C4721A"/><circle cx="78" cy="50.377315902755754" r="8" fill="#C4721A"/><circle cx="92" cy="44.78739778352574" r="8" fill="#C4721A"/><circle cx="106" cy="42.0191769558208" r="8" fill="#C4721A"/><circle cx="120" cy="45.60292250900537" r="8" fill="#C4721A"/><circle cx="134" cy="50.968339319245764" r="8" fill="#C4721A"/><circle cx="148" cy="51.2729945404414" r="8" fill="#C4721A"/><circle cx="55" cy="41" r="7" fill="#C4721A"/><circle cx="71" cy="37.28294880667081" r="7" fill="#C4721A"/><circle cx="87" cy="33.04003001359822" r="7" fill="#C4721A"/><circle cx="103" cy="36.15681680227688" r="7" fill="#C4721A"/><circle cx="119" cy="40.84068114660146" r="7" fill="#C4721A"/><circle cx="135" cy="38.3865412713401" r="7" fill="#C4721A"/><ellipse cx="78" cy="94" rx="10" ry="7" fill="white"/><ellipse cx="122" cy="94" rx="10" ry="7" fill="white"/><circle cx="78" cy="94" r="5" fill="#1B5E20"/><circle cx="122" cy="94" r="5" fill="#1B5E20"/><circle cx="79" cy="93" r="2" fill="white" opacity="0.6"/><circle cx="123" cy="93" r="2" fill="white" opacity="0.6"/><circle cx="78" cy="94" r="2.5" fill="#111"/><circle cx="122" cy="94" r="2.5" fill="#111"/><path d="M65 80 Q78 75 90 80" stroke="#895012" stroke-width="2.5" fill="none" stroke-linecap="round"/><path d="M110 80 Q122 75 135 80" stroke="#895012" stroke-width="2.5" fill="none" stroke-linecap="round"/><path d="M95 104 Q100 114 105 104" stroke="#d0b190" stroke-width="1.5" fill="none"/><circle cx="93" cy="108" r="2" fill="#ddbb98"/><circle cx="107" cy="108" r="2" fill="#ddbb98"/><path d="M82 124 Q100 136 118 124" stroke="#ac9276" stroke-width="2" fill="none" stroke-linecap="round"/><path d="M88 126 Q100 134 112 126" fill="white" opacity="0.8"/><circle cx="70" cy="104" r="1.2" fill="#c4a687" opacity="0.5"/><circle cx="75" cy="108" r="1" fill="#c4a687" opacity="0.45"/><circle cx="67" cy="110" r="1.1" fill="#c4a687" opacity="0.5"/><circle cx="73" cy="112" r="0.9" fill="#c4a687" opacity="0.4"/><circle cx="125" cy="104" r="1.2" fill="#c4a687" opacity="0.5"/><circle cx="130" cy="108" r="1" fill="#c4a687" opacity="0.45"/><circle cx="133" cy="110" r="1.1" fill="#c4a687" opacity="0.5"/><circle cx="127" cy="112" r="0.9" fill="#c4a687" opacity="0.4"/><text x="100" y="232" text-anchor="middle" font-family="system-ui" font-size="11" font-weight="600" fill="#475569">Rosto 25</text></svg>