<svg xmlns="http://www.w3.org/2000/svg" viewBox="0 0 280 250" width="280" height="250">
<rect width="280" height="250" fill="#1a2332" rx="12"/>
<rect x="44.5" y="17" width="61" height="61" fill="#1e2d3d" stroke="#374151" stroke-width="2" rx="2"/><polygon points="75,33.85 84.55499999999999,47.5 75,61.15 65.44500000000001,47.5" fill="#F59E0B" stroke="#475569" stroke-width="2"/><polygon points="75,42.04 76.28372299100675,45.733106884285114 80.19276857897154,45.812767210712785 77.07710743158862,48.17489311571489 78.2093074775169,51.91723278928721 75,49.684 71.7906925224831,51.91723278928721 72.92289256841138,48.17489311571489 69.80723142102846,45.812767210712785 73.71627700899325,45.733106884285114" fill="#06B6D4"/><rect x="109.5" y="17" width="61" height="61" fill="#1e2d3d" stroke="#374151" stroke-width="2" rx="2"/><polygon points="154.35437106772707,39.212500000000006 154.35437106772707,55.787499999999994 140,64.075 125.64562893227293,55.787499999999994 125.64562893227293,39.2125 140,30.925 " fill="#8B5CF6" stroke="#475569" stroke-width="2"/><path d="M138.011 40.87 L141.989 40.87 L141.989 45.511 L146.63 45.511 L146.63 49.489 L141.989 49.489 L141.989 54.13 L138.011 54.13 L138.011 49.489 L133.37 49.489 L133.37 45.511 L138.011 45.511 Z" fill="#3B82F6" stroke="none" stroke-width="1.5"/><rect x="174.5" y="17" width="61" height="61" fill="#1e2d3d" stroke="#374151" stroke-width="2" rx="2"/><polygon points="205,28 209.5847249678813,41.18966744387541 223.54560206775548,41.474168609688526 212.4182408271022,49.91033255612459 216.46181241970322,63.275831390311474 205,55.3 193.53818758029678,63.275831390311474 197.5817591728978,49.910332556124594 186.45439793224452,41.47416860968852 200.4152750321187,41.18966744387541" fill="#F97316"/><circle cx="205" cy="47.5" r="7.800000000000001" fill="#EF4444" stroke="none" stroke-width="2"/><rect x="44.5" y="82" width="61" height="61" fill="#1e2d3d" stroke="#374151" stroke-width="2" rx="2"/><polygon points="88.50999629903724,104.7 88.50999629903724,120.3 75,128.1 61.49000370096276,120.3 61.49000370096276,104.7 75,96.9 " fill="#F97316" stroke="#475569" stroke-width="2"/><path d="M73.128 106.26 L76.872 106.26 L76.872 110.628 L81.24 110.628 L81.24 114.372 L76.872 114.372 L76.872 118.74 L73.128 118.74 L73.128 114.372 L68.76 114.372 L68.76 110.628 L73.128 110.628 Z" fill="#EF4444" stroke="none" stroke-width="1.5"/><rect x="109.5" y="82" width="61" height="61" fill="#1e2d3d" stroke="#374151" stroke-width="2" rx="2"/><polygon points="140,93.975 144.35548871948723,106.50518407168164 157.6183219643677,106.7754601792041 147.04732878574708,114.78981592831836 150.88872179871805,127.4870398207959 140,119.91 129.11127820128195,127.4870398207959 132.95267121425292,114.78981592831836 122.38167803563229,106.77546017920409 135.64451128051277,106.50518407168164" fill="#06B6D4"/><circle cx="140" cy="112.5" r="7.41" fill="#10B981" stroke="none" stroke-width="2"/><rect x="174.5" y="82" width="61" height="61" fill="#1e2d3d" stroke="#374151" stroke-width="2" rx="2"/><path d="M198.565 91.05 L211.435 91.05 L211.435 106.065 L226.45 106.065 L226.45 118.935 L211.435 118.935 L211.435 133.95 L198.565 133.95 L198.565 118.935 L183.55 118.935 L183.55 106.065 L198.565 106.065 Z" fill="#3B82F6" stroke="#475569" stroke-width="1.5"/><rect x="196.42" y="103.92" width="17.160000000000004" height="17.160000000000004" fill="#F59E0B" stroke="none" stroke-width="2" rx="2"/><rect x="44.5" y="147" width="61" height="61" fill="#1e2d3d" stroke="#374151" stroke-width="2" rx="2"/><polygon points="75,159.95 79.12625247109317,171.82070069948787 91.69104186097994,172.0767517487197 81.67641674439197,179.66929930051214 85.3156311777329,191.69824825128032 75,184.52 64.6843688222671,191.69824825128032 68.32358325560803,179.66929930051214 58.30895813902006,172.07675174871966 70.87374752890683,171.82070069948787" fill="#3B82F6"/><circle cx="75" cy="177.5" r="7.02" fill="#F59E0B" stroke="none" stroke-width="2"/><rect x="109.5" y="147" width="61" height="61" fill="#1e2d3d" stroke="#374151" stroke-width="2" rx="2"/><path d="M133.8575 157.025 L146.1425 157.025 L146.1425 171.3575 L160.475 171.3575 L160.475 183.6425 L146.1425 183.6425 L146.1425 197.975 L133.8575 197.975 L133.8575 183.6425 L119.525 183.6425 L119.525 171.3575 L133.8575 171.3575 Z" fill="#EF4444" stroke="#475569" stroke-width="1.5"/><rect x="131.81" y="169.31" width="16.380000000000003" height="16.380000000000003" fill="#8B5CF6" stroke="none" stroke-width="2" rx="2"/><rect x="174.5" y="147" width="61" height="61" fill="#243044" stroke="#374151" stroke-width="2" rx="2"/><text x="205" y="185.5" text-anchor="middle" font-family="system-ui" font-size="28" font-weight="700" fill="#3B82F6">?</text><rect x="42.5" y="15" width="195" height="195" fill="none" stroke="#475569" stroke-width="2" rx="2"/>
<text x="140" y="244" text-anchor="middle" font-family="system-ui" font-size="9" fill="#475569">MIG - Q13</text>
</svg>