<svg xmlns="http://www.w3.org/2000/svg" viewBox="0 0 280 250" width="280" height="250">
<rect width="280" height="250" fill="#1a2332" rx="12"/>
<rect x="52" y="17" width="86" height="86" fill="#1e2d3d" stroke="#374151" stroke-width="2" rx="2"/><polygon points="95,41.1 108.23,60 95,78.9 81.77,60" fill="#F59E0B" stroke="#475569" stroke-width="2"/><rect x="142" y="17" width="86" height="86" fill="#1e2d3d" stroke="#374151" stroke-width="2" rx="2"/><polygon points="204.87528301685288,48.525000000000006 204.87528301685288,71.475 185,82.95 165.12471698314712,71.475 165.12471698314712,48.525 185,37.05 " fill="#8B5CF6" stroke="#475569" stroke-width="2"/><rect x="52" y="107" width="86" height="86" fill="#1e2d3d" stroke="#374151" stroke-width="2" rx="2"/><polygon points="113.70614872174387,139.2 113.70614872174387,160.8 95,171.6 76.29385127825613,160.8 76.29385127825613,139.2 95,128.4 " fill="#F97316" stroke="#475569" stroke-width="2"/><rect x="142" y="107" width="86" height="86" fill="#243044" stroke="#374151" stroke-width="2" rx="2"/><text x="185" y="158" text-anchor="middle" font-family="system-ui" font-size="28" font-weight="700" fill="#3B82F6">?</text><rect x="50" y="15" width="180" height="180" fill="none" stroke="#475569" stroke-width="2" rx="2"/>
<text x="140" y="244" text-anchor="middle" font-family="system-ui" font-size="9" fill="#475569">MIG - Q2</text>
</svg>