<svg xmlns="http://www.w3.org/2000/svg" viewBox="0 0 300 250" width="300" height="250"><rect width="300" height="250" fill="#1a2332" rx="12"/><circle cx="50" cy="125" r="22" fill="#EF4444"/><text x="50" y="165" text-anchor="middle" font-family="system-ui" font-size="9" fill="#64748B">1</text><rect x="78" y="103" width="44" height="44" fill="none" stroke="#3B82F6" stroke-width="2" rx="3"/><line x1="78" y1="103" x2="122" y2="103" stroke="#3B82F6" stroke-width="1.5" opacity="0.5"/><line x1="78" y1="109" x2="122" y2="109" stroke="#3B82F6" stroke-width="1.5" opacity="0.5"/><line x1="78" y1="115" x2="122" y2="115" stroke="#3B82F6" stroke-width="1.5" opacity="0.5"/><line x1="78" y1="121" x2="122" y2="121" stroke="#3B82F6" stroke-width="1.5" opacity="0.5"/><line x1="78" y1="127" x2="122" y2="127" stroke="#3B82F6" stroke-width="1.5" opacity="0.5"/><line x1="78" y1="133" x2="122" y2="133" stroke="#3B82F6" stroke-width="1.5" opacity="0.5"/><line x1="78" y1="139" x2="122" y2="139" stroke="#3B82F6" stroke-width="1.5" opacity="0.5"/><line x1="78" y1="145" x2="122" y2="145" stroke="#3B82F6" stroke-width="1.5" opacity="0.5"/><text x="100" y="165" text-anchor="middle" font-family="system-ui" font-size="9" fill="#64748B">2</text><circle cx="150" cy="125" r="22" fill="none" stroke="#10B981" stroke-width="2"/><line x1="150" y1="103" x2="150" y2="103" stroke="#10B981" stroke-width="1.5" opacity="0.5"/><line x1="134.9003311294585" y1="109" x2="165.0996688705415" y2="109" stroke="#10B981" stroke-width="1.5" opacity="0.5"/><line x1="130.40408205773457" y1="115" x2="169.59591794226543" y2="115" stroke="#10B981" stroke-width="1.5" opacity="0.5"/><line x1="128.36669234721606" y1="121" x2="171.63330765278394" y2="121" stroke="#10B981" stroke-width="1.5" opacity="0.5"/><line x1="128.09109769979335" y1="127" x2="171.90890230020665" y2="127" stroke="#10B981" stroke-width="1.5" opacity="0.5"/><line x1="129.5060984680808" y1="133" x2="170.4939015319192" y2="133" stroke="#10B981" stroke-width="1.5" opacity="0.5"/><line x1="133.02943725152286" y1="139" x2="166.97056274847714" y2="139" stroke="#10B981" stroke-width="1.5" opacity="0.5"/><line x1="140.83484861008833" y1="145" x2="159.16515138991167" y2="145" stroke="#10B981" stroke-width="1.5" opacity="0.5"/><text x="150" y="165" text-anchor="middle" font-family="system-ui" font-size="9" fill="#64748B">3</text><rect x="178" y="103" width="44" height="44" fill="#F97316" rx="3"/><text x="200" y="165" text-anchor="middle" font-family="system-ui" font-size="9" fill="#64748B">4</text><polygon points="250,103 228,147 272,147" fill="none" stroke="#8B5CF6" stroke-width="2.5"/><text x="250" y="165" text-anchor="middle" font-family="system-ui" font-size="9" fill="#64748B">5</text><text x="150" y="242" text-anchor="middle" font-family="system-ui" font-size="10" fill="#475569">Padrão 13</text></svg>