<svg xmlns="http://www.w3.org/2000/svg" viewBox="0 0 300 250" width="300" height="250"><rect width="300" height="250" fill="#1a2332" rx="12"/><rect x="45" y="110" width="50" height="40" fill="#EF4444" rx="2"/><polygon points="40,110 70,85 100,110" fill="#8B4513"/><rect x="65" y="130" width="10" height="20" fill="#4A2511" rx="1"/><rect x="53" y="117" width="8" height="8" fill="#60A5FA" rx="1"/><rect x="68" y="117" width="8" height="8" fill="#60A5FA" rx="1"/><rect x="107" y="125" width="6" height="25" fill="#8B4513"/><circle cx="110" cy="115" r="18" fill="#10B981"/><line x1="25" y1="150" x2="130" y2="150" stroke="#8B4513" stroke-width="2"/><rect x="195" y="110" width="50" height="40" fill="#EF4444" rx="2"/><polygon points="190,110 220,85 250,110" fill="#8B4513"/><rect x="215" y="130" width="10" height="20" fill="#4A2511" rx="1"/><rect x="203" y="117" width="8" height="8" fill="#60A5FA" rx="1"/><rect x="218" y="117" width="8" height="8" fill="#60A5FA" rx="1"/><rect x="233" y="117" width="8" height="8" fill="#60A5FA" rx="1"/><rect x="257" y="125" width="6" height="25" fill="#8B4513"/><circle cx="260" cy="115" r="18" fill="#10B981"/><line x1="175" y1="150" x2="280" y2="150" stroke="#8B4513" stroke-width="2"/><line x1="150" y1="30" x2="150" y2="220" stroke="#475569" stroke-width="1" stroke-dasharray="4 4"/><text x="75" y="30" text-anchor="middle" font-family="system-ui" font-size="11" fill="#94A3B8">Figura A</text><text x="225" y="30" text-anchor="middle" font-family="system-ui" font-size="11" fill="#94A3B8">Figura B</text><text x="150" y="242" text-anchor="middle" font-family="system-ui" font-size="10" fill="#475569">Padrão 4</text></svg>