<svg xmlns="http://www.w3.org/2000/svg" viewBox="0 0 300 250" width="300" height="250"><rect width="300" height="250" fill="#1a2332" rx="12"/><rect x="18.333333333333336" y="100" width="30" height="50" fill="#EF4444" rx="6"/><text x="33.333333333333336" y="165" text-anchor="middle" font-family="system-ui" font-size="9" fill="#94A3B8">V</text><text x="33.333333333333336" y="128" text-anchor="middle" font-family="system-ui" font-size="11" font-weight="600" fill="white">1</text><rect x="51.66666666666667" y="100" width="30" height="50" fill="#3B82F6" rx="6"/><text x="66.66666666666667" y="165" text-anchor="middle" font-family="system-ui" font-size="9" fill="#94A3B8">Az</text><text x="66.66666666666667" y="128" text-anchor="middle" font-family="system-ui" font-size="11" font-weight="600" fill="white">2</text><rect x="85" y="100" width="30" height="50" fill="#10B981" rx="6"/><text x="100" y="165" text-anchor="middle" font-family="system-ui" font-size="9" fill="#94A3B8">Vd</text><text x="100" y="128" text-anchor="middle" font-family="system-ui" font-size="11" font-weight="600" fill="white">3</text><rect x="118.33333333333334" y="100" width="30" height="50" fill="#F59E0B" rx="6"/><text x="133.33333333333334" y="165" text-anchor="middle" font-family="system-ui" font-size="9" fill="#94A3B8">Am</text><text x="133.33333333333334" y="128" text-anchor="middle" font-family="system-ui" font-size="11" font-weight="600" fill="white">4</text><rect x="151.66666666666669" y="100" width="30" height="50" fill="#8B5CF6" rx="6"/><text x="166.66666666666669" y="165" text-anchor="middle" font-family="system-ui" font-size="9" fill="#94A3B8">Rx</text><text x="166.66666666666669" y="128" text-anchor="middle" font-family="system-ui" font-size="11" font-weight="600" fill="white">5</text><rect x="185" y="100" width="30" height="50" fill="#F97316" rx="6"/><text x="200" y="165" text-anchor="middle" font-family="system-ui" font-size="9" fill="#94A3B8">Lr</text><text x="200" y="128" text-anchor="middle" font-family="system-ui" font-size="11" font-weight="600" fill="white">6</text><rect x="218.33333333333334" y="100" width="30" height="50" fill="#EC4899" rx="6"/><text x="233.33333333333334" y="165" text-anchor="middle" font-family="system-ui" font-size="9" fill="#94A3B8">Rs</text><text x="233.33333333333334" y="128" text-anchor="middle" font-family="system-ui" font-size="11" font-weight="600" fill="white">7</text><rect x="251.66666666666669" y="100" width="30" height="50" fill="#92400E" rx="6"/><text x="266.6666666666667" y="165" text-anchor="middle" font-family="system-ui" font-size="9" fill="#94A3B8">Mr</text><text x="266.6666666666667" y="128" text-anchor="middle" font-family="system-ui" font-size="11" font-weight="600" fill="white">8</text><text x="150" y="242" text-anchor="middle" font-family="system-ui" font-size="10" fill="#475569">Padrão 8</text></svg>