<svg xmlns="http://www.w3.org/2000/svg" viewBox="0 0 300 250" width="300" height="250"><rect width="300" height="250" fill="#1a2332" rx="12"/><line x1="51" y1="90" x2="78" y2="90" stroke="#3B82F6" stroke-width="3" stroke-linecap="round"/><polygon points="78,90 71.07179676972449,94 71.07179676972449,86" fill="#3B82F6"/><line x1="60" y1="151" x2="60" y2="178" stroke="#EF4444" stroke-width="3" stroke-linecap="round"/><polygon points="60,178 56,171.0717967697245 64,171.0717967697245" fill="#EF4444"/><line x1="120" y1="99" x2="120" y2="72" stroke="#3B82F6" stroke-width="3" stroke-linecap="round"/><polygon points="120,72 124,78.92820323027551 116,78.92820323027551" fill="#3B82F6"/><line x1="129" y1="160" x2="102" y2="160" stroke="#EF4444" stroke-width="3" stroke-linecap="round"/><polygon points="102,160 108.92820323027551,156 108.92820323027551,164" fill="#EF4444"/><line x1="189" y1="90" x2="162" y2="90" stroke="#3B82F6" stroke-width="3" stroke-linecap="round"/><polygon points="162,90 168.9282032302755,86 168.9282032302755,94" fill="#3B82F6"/><line x1="180" y1="169" x2="180" y2="142" stroke="#EF4444" stroke-width="3" stroke-linecap="round"/><polygon points="180,142 184,148.9282032302755 176,148.9282032302755" fill="#EF4444"/><line x1="240" y1="81" x2="240" y2="108" stroke="#3B82F6" stroke-width="3" stroke-linecap="round"/><polygon points="240,108 236,101.07179676972449 244,101.07179676972449" fill="#3B82F6"/><line x1="231" y1="160" x2="258" y2="160" stroke="#EF4444" stroke-width="3" stroke-linecap="round"/><polygon points="258,160 251.0717967697245,164 251.0717967697245,156" fill="#EF4444"/><text x="15" y="93" font-family="system-ui" font-size="10" fill="#64748B">1ª</text><text x="15" y="163" font-family="system-ui" font-size="10" fill="#64748B">2ª</text><text x="150" y="242" text-anchor="middle" font-family="system-ui" font-size="10" fill="#475569">Padrão 14</text></svg>