<svg xmlns="http://www.w3.org/2000/svg" viewBox="0 0 300 250" width="300" height="250"><rect width="300" height="250" fill="#1a2332" rx="12"/><rect x="135" y="25" width="30" height="30" fill="#243044" stroke="#475569" stroke-width="1" rx="4"/><polygon points="150,31 152.1160269082529,37.08753882025019 158.55950864665638,37.21884705062547 153.42380345866255,41.11246117974981 155.29006727063225,47.28115294937453 150,43.6 144.70993272936775,47.28115294937453 146.57619654133745,41.11246117974981 141.44049135334362,37.21884705062547 147.8839730917471,37.08753882025019" fill="#F59E0B"/><text x="150" y="26" text-anchor="middle" font-family="system-ui" font-size="8" fill="#64748B">12h</text><rect x="182.02282018339787" y="40.278640450004204" width="30" height="30" fill="#243044" stroke="#475569" stroke-width="1" rx="4"/><path d="M188.02282018339787 55.278640450004204 A9 9 0 1 1 199.72282018339786 46.278640450004204 A6.3 6.3 0 0 0 188.02282018339787 55.278640450004204" fill="#3B82F6"/><rect x="211.0845213036123" y="80.2786404500042" width="30" height="30" fill="#243044" stroke="#475569" stroke-width="1" rx="4"/><path d="M226.0845213036123 86.2786404500042 Q235.0845213036123 95.2786404500042 226.0845213036123 104.2786404500042 Q217.0845213036123 95.2786404500042 226.0845213036123 86.2786404500042" fill="#06B6D4"/><rect x="211.0845213036123" y="129.72135954999578" width="30" height="30" fill="#243044" stroke="#475569" stroke-width="1" rx="4"/><polygon points="224.28452130361228,135.72135954999578 230.5845213036123,135.72135954999578 226.0845213036123,144.72135954999578 228.78452130361228,144.72135954999578 222.4845213036123,153.72135954999578 226.9845213036123,143.82135954999578" fill="#F97316"/><text x="243.20353859692506" y="154.28366544874484" text-anchor="middle" font-family="system-ui" font-size="8" fill="#64748B">3h</text><rect x="182.02282018339787" y="169.72135954999578" width="30" height="30" fill="#243044" stroke="#475569" stroke-width="1" rx="4"/><circle cx="197.02282018339787" cy="180.22135954999578" r="3.15" fill="#EC4899" opacity="0.8"/><circle cx="201.30257450672605" cy="183.33078307530852" r="3.15" fill="#EC4899" opacity="0.8"/><circle cx="199.667853818714" cy="188.36193602468305" r="3.15" fill="#EC4899" opacity="0.8"/><circle cx="194.37778654808173" cy="188.36193602468305" r="3.15" fill="#EC4899" opacity="0.8"/><circle cx="192.7430658600697" cy="183.33078307530852" r="3.15" fill="#EC4899" opacity="0.8"/><circle cx="197.02282018339787" cy="184.72135954999578" r="2.25" fill="#F59E0B"/><rect x="135" y="185" width="30" height="30" fill="#243044" stroke="#475569" stroke-width="1" rx="4"/><circle cx="150" cy="200" r="4.5" fill="#F59E0B"/><line x1="155.4" y1="200" x2="159" y2="200" stroke="#F59E0B" stroke-width="2" stroke-linecap="round"/><line x1="153.81837661840737" y1="203.81837661840734" x2="156.36396103067892" y2="206.36396103067892" stroke="#F59E0B" stroke-width="2" stroke-linecap="round"/><line x1="150" y1="205.4" x2="150" y2="209" stroke="#F59E0B" stroke-width="2" stroke-linecap="round"/><line x1="146.18162338159266" y1="203.81837661840737" x2="143.63603896932108" y2="206.36396103067892" stroke="#F59E0B" stroke-width="2" stroke-linecap="round"/><line x1="144.6" y1="200" x2="141" y2="200" stroke="#F59E0B" stroke-width="2" stroke-linecap="round"/><line x1="146.18162338159263" y1="196.18162338159266" x2="143.63603896932108" y2="193.63603896932108" stroke="#F59E0B" stroke-width="2" stroke-linecap="round"/><line x1="150" y1="194.6" x2="150" y2="191" stroke="#F59E0B" stroke-width="2" stroke-linecap="round"/><line x1="153.81837661840734" y1="196.18162338159263" x2="156.36396103067892" y2="193.63603896932108" stroke="#F59E0B" stroke-width="2" stroke-linecap="round"/><rect x="87.97717981660216" y="169.72135954999578" width="30" height="30" fill="#243044" stroke="#475569" stroke-width="1" rx="4"/><ellipse cx="102.97717981660216" cy="184.72135954999578" rx="9" ry="5.3999999999999995" fill="#3B82F6"/><circle cx="99.37717981660217" cy="182.0213595499958" r="4.05" fill="#3B82F6"/><circle cx="106.57717981660215" cy="182.92135954999577" r="3.6" fill="#3B82F6"/><text x="92.39704527533765" y="203.28366544874484" text-anchor="middle" font-family="system-ui" font-size="8" fill="#64748B">6h</text><rect x="58.91547869638772" y="129.7213595499958" width="30" height="30" fill="#243044" stroke="#475569" stroke-width="1" rx="4"/><rect x="72.56547869638773" y="144.7213595499958" width="2.6999999999999997" height="9" fill="#8B4513"/><polygon points="73.91547869638772,135.7213595499958 67.61547869638773,146.52135954999582 80.21547869638772,146.52135954999582" fill="#10B981"/><rect x="58.91547869638772" y="80.27864045000419" width="30" height="30" fill="#243044" stroke="#475569" stroke-width="1" rx="4"/><polygon points="73.91547869638772,86.27864045000419 76.03150560464063,92.36617927025438 82.4749873430441,92.49748750062966 77.33928215505027,96.391101629754 79.20554596701999,102.55979339937872 73.91547869638772,98.87864045000418 68.62541142575546,102.55979339937872 70.49167523772518,96.391101629754 65.35597004973134,92.49748750062966 71.79945178813482,92.36617927025438" fill="#EF4444"/><rect x="87.97717981660213" y="40.27864045000422" width="30" height="30" fill="#243044" stroke="#475569" stroke-width="1" rx="4"/><path d="M93.97717981660213 55.27864045000422 A9 9 0 1 1 105.67717981660213 46.27864045000422 A6.3 6.3 0 0 0 93.97717981660213 55.27864045000422" fill="#8B5CF6"/><text x="92.39704527533763" y="44.71633455125516" text-anchor="middle" font-family="system-ui" font-size="8" fill="#64748B">9h</text><text x="150" y="242" text-anchor="middle" font-family="system-ui" font-size="10" fill="#475569">Padrão 7</text></svg>