<svg xmlns="http://www.w3.org/2000/svg" viewBox="0 0 300 250" width="300" height="250"><rect width="300" height="250" fill="#1a2332" rx="12"/><polygon points="33.333333333333336,115 35.68447434250323,121.76393202250021 42.84389849628487,121.90983005625053 37.13755939851395,126.23606797749979 39.21118585625807,133.0901699437495 33.333333333333336,129 27.455480810408606,133.0901699437495 29.52910726815272,126.23606797749979 23.8227681703818,121.90983005625053 30.982192324163442,121.76393202250021" fill="#F59E0B"/><path d="M56.66666666666667 125 A10 10 0 1 1 69.66666666666667 115 A7 7 0 0 0 56.66666666666667 125" fill="#94A3B8"/><circle cx="100" cy="125" r="5" fill="#F59E0B"/><line x1="106" y1="125" x2="110" y2="125" stroke="#F59E0B" stroke-width="2" stroke-linecap="round"/><line x1="104.24264068711929" y1="129.2426406871193" x2="107.07106781186548" y2="132.07106781186548" stroke="#F59E0B" stroke-width="2" stroke-linecap="round"/><line x1="100" y1="131" x2="100" y2="135" stroke="#F59E0B" stroke-width="2" stroke-linecap="round"/><line x1="95.75735931288071" y1="129.2426406871193" x2="92.92893218813452" y2="132.07106781186548" stroke="#F59E0B" stroke-width="2" stroke-linecap="round"/><line x1="94" y1="125" x2="90" y2="125" stroke="#F59E0B" stroke-width="2" stroke-linecap="round"/><line x1="95.75735931288071" y1="120.75735931288071" x2="92.92893218813452" y2="117.92893218813452" stroke="#F59E0B" stroke-width="2" stroke-linecap="round"/><line x1="100" y1="119" x2="100" y2="115" stroke="#F59E0B" stroke-width="2" stroke-linecap="round"/><line x1="104.24264068711929" y1="120.75735931288071" x2="107.07106781186548" y2="117.92893218813452" stroke="#F59E0B" stroke-width="2" stroke-linecap="round"/><ellipse cx="133.33333333333334" cy="125" rx="10" ry="6" fill="#94A3B8"/><circle cx="129.33333333333334" cy="122" r="4.5" fill="#94A3B8"/><circle cx="137.33333333333334" cy="123" r="4" fill="#94A3B8"/><polygon points="164.66666666666669,115 171.66666666666669,115 166.66666666666669,125 169.66666666666669,125 162.66666666666669,135 167.66666666666669,124" fill="#F59E0B"/><path d="M200 115 Q210 125 200 135 Q190 125 200 115" fill="#3B82F6"/><circle cx="233.33333333333334" cy="120" r="3.5" fill="#EC4899" opacity="0.8"/><circle cx="238.0886159148091" cy="123.45491502812526" r="3.5" fill="#EC4899" opacity="0.8"/><circle cx="236.2722595947957" cy="129.04508497187473" r="3.5" fill="#EC4899" opacity="0.8"/><circle cx="230.39440707187097" cy="129.04508497187473" r="3.5" fill="#EC4899" opacity="0.8"/><circle cx="228.57805075185757" cy="123.45491502812526" r="3.5" fill="#EC4899" opacity="0.8"/><circle cx="233.33333333333334" cy="125" r="2.5" fill="#F59E0B"/><rect x="265.1666666666667" y="125" width="3" height="10" fill="#8B4513"/><polygon points="266.6666666666667,115 259.6666666666667,127 273.6666666666667,127" fill="#10B981"/><text x="150" y="242" text-anchor="middle" font-family="system-ui" font-size="10" fill="#475569">Padrão 1</text></svg>