<svg xmlns="http://www.w3.org/2000/svg" viewBox="0 0 300 250" width="300" height="250"><rect width="300" height="250" fill="#1a2332" rx="12"/><rect x="64" y="39" width="40" height="40" fill="#3B82F6" rx="4" stroke="#1a2332" stroke-width="2"/><rect x="108" y="39" width="40" height="40" fill="#FFFFFF" rx="4" stroke="#1a2332" stroke-width="2"/><rect x="152" y="39" width="40" height="40" fill="#94A3B8" rx="4" stroke="#1a2332" stroke-width="2"/><rect x="196" y="39" width="40" height="40" fill="#3B82F6" rx="4" stroke="#1a2332" stroke-width="2"/><rect x="64" y="83" width="40" height="40" fill="#FFFFFF" rx="4" stroke="#1a2332" stroke-width="2"/><rect x="108" y="83" width="40" height="40" fill="#3B82F6" rx="4" stroke="#1a2332" stroke-width="2"/><rect x="152" y="83" width="40" height="40" fill="#3B82F6" rx="4" stroke="#1a2332" stroke-width="2"/><rect x="196" y="83" width="40" height="40" fill="#94A3B8" rx="4" stroke="#1a2332" stroke-width="2"/><rect x="64" y="127" width="40" height="40" fill="#94A3B8" rx="4" stroke="#1a2332" stroke-width="2"/><rect x="108" y="127" width="40" height="40" fill="#94A3B8" rx="4" stroke="#1a2332" stroke-width="2"/><rect x="152" y="127" width="40" height="40" fill="#FFFFFF" rx="4" stroke="#1a2332" stroke-width="2"/><rect x="196" y="127" width="40" height="40" fill="#3B82F6" rx="4" stroke="#1a2332" stroke-width="2"/><rect x="64" y="171" width="40" height="40" fill="#3B82F6" rx="4" stroke="#1a2332" stroke-width="2"/><rect x="108" y="171" width="40" height="40" fill="#3B82F6" rx="4" stroke="#1a2332" stroke-width="2"/><rect x="152" y="171" width="40" height="40" fill="#FFFFFF" rx="4" stroke="#1a2332" stroke-width="2"/><rect x="196" y="171" width="40" height="40" fill="#FFFFFF" rx="4" stroke="#1a2332" stroke-width="2"/><text x="150" y="242" text-anchor="middle" font-family="system-ui" font-size="10" fill="#475569">Padrão 9</text></svg>