<svg xmlns="http://www.w3.org/2000/svg" viewBox="0 0 300 250" width="300" height="250"><rect width="300" height="250" fill="#1a2332" rx="12"/><rect x="20" y="75" width="70" height="80" fill="#243044" rx="6" stroke="#475569" stroke-width="1"/><circle cx="45" cy="100" r="10" fill="#3B82F6"/><polygon points="65,90 55,110 75,110" fill="#10B981"/><rect x="37" y="125" width="16" height="16" fill="#EF4444" rx="2"/><text x="55" y="180" text-anchor="middle" font-family="system-ui" font-size="9" fill="#94A3B8">Original</text><rect x="120" y="75" width="70" height="80" fill="#243044" rx="6" stroke="#475569" stroke-width="1"/><circle cx="145" cy="100" r="10" fill="#3B82F6"/><polygon points="165,90 155,110 175,110" fill="#10B981"/><rect x="137" y="125" width="16" height="16" fill="#EF4444" rx="2"/><circle cx="167" cy="133" r="6" fill="#F59E0B"/><text x="155" y="180" text-anchor="middle" font-family="system-ui" font-size="9" fill="#94A3B8">Versão 2</text><rect x="220" y="75" width="70" height="80" fill="#243044" rx="6" stroke="#475569" stroke-width="1"/><circle cx="245" cy="100" r="10" fill="#3B82F6"/><polygon points="265,90 255,110 275,110" fill="#10B981"/><rect x="237" y="125" width="16" height="16" fill="#EF4444" rx="2"/><circle cx="267" cy="133" r="6" fill="#F59E0B"/><line x1="245" y1="95" x2="245" y2="105" stroke="#8B5CF6" stroke-width="2"/><rect x="257" y="125" width="16" height="16" fill="#F97316" rx="2"/><text x="255" y="180" text-anchor="middle" font-family="system-ui" font-size="9" fill="#94A3B8">Versão 3</text><text x="150" y="242" text-anchor="middle" font-family="system-ui" font-size="10" fill="#475569">Padrão 10</text></svg>