<svg xmlns="http://www.w3.org/2000/svg" viewBox="0 0 300 250" width="300" height="250"><rect width="300" height="250" fill="#1a2332" rx="12"/><circle cx="30" cy="45" r="12" fill="#EF4444"/><rect x="75" y="35" width="20" height="20" fill="#F59E0B" rx="2"/><polygon points="140,33 128,57 152,57" fill="#3B82F6"/><polygon points="195,33 197.82136921100388,41.11671842700025 206.41267819554184,41.291796067500634 199.56507127821675,46.48328157299975 202.05342302750967,54.70820393249937 195,49.8 187.94657697249033,54.70820393249937 190.43492872178325,46.48328157299975 183.58732180445816,41.29179606750063 192.17863078899612,41.11671842700025" fill="#8B5CF6"/><polygon points="250,33 260,45 250,57 240,45" fill="#10B981"/><circle cx="30" cy="110" r="12" fill="#EF4444"/><rect x="75" y="100" width="20" height="20" fill="#F59E0B" rx="2"/><polygon points="140,98 128,122 152,122" fill="#3B82F6"/><polygon points="195,98 197.82136921100388,106.11671842700025 206.41267819554184,106.29179606750063 199.56507127821675,111.48328157299974 202.05342302750967,119.70820393249937 195,114.8 187.94657697249033,119.70820393249937 190.43492872178325,111.48328157299974 183.58732180445816,106.29179606750063 192.17863078899612,106.11671842700025" fill="#8B5CF6"/><polygon points="250,98 260,110 250,122 240,110" fill="#10B981"/><circle cx="30" cy="175" r="12" fill="#EF4444"/><rect x="75" y="165" width="20" height="20" fill="#F59E0B" rx="2"/><polygon points="140,163 128,187 152,187" fill="#3B82F6"/><polygon points="195,163 197.82136921100388,171.11671842700025 206.41267819554184,171.29179606750063 199.56507127821675,176.48328157299974 202.05342302750967,184.70820393249937 195,179.8 187.94657697249033,184.70820393249937 190.43492872178325,176.48328157299974 183.58732180445816,171.29179606750063 192.17863078899612,171.11671842700025" fill="#8B5CF6"/><polygon points="250,163 260,175 250,187 240,175" fill="#10B981"/><text x="150" y="242" text-anchor="middle" font-family="system-ui" font-size="10" fill="#475569">Padrão 5</text></svg>