<svg xmlns="http://www.w3.org/2000/svg" viewBox="0 0 300 250" width="300" height="250"><rect width="300" height="250" fill="#1a2332" rx="12"/><rect x="30" y="145" width="240" height="8" fill="#8B4513" rx="2"/><rect x="50" y="153" width="6" height="40" fill="#6B3410"/><rect x="244" y="153" width="6" height="40" fill="#6B3410"/><rect x="60" y="120" width="35" height="25" fill="#3B82F6" rx="2"/><line x1="78" y1="120" x2="78" y2="145" stroke="#1E40AF" stroke-width="1.5"/><rect x="100" y="130" width="30" height="5" fill="#1A1A2E" rx="2"/><polygon points="130,130 135,132.5 130,135" fill="#F59E0B"/><rect x="115" y="110" width="18" height="22" fill="#D4A574" rx="3"/><path d="M133 117 Q142 120 133 125" stroke="#D4A574" stroke-width="2" fill="none"/><rect x="210" y="75" width="6" height="50" fill="#94A3B8"/><path d="M200 75 Q213 60 226 75" fill="#F59E0B" opacity="0.8"/><circle cx="175" cy="45" r="18" fill="#243044" stroke="#94A3B8" stroke-width="1.5"/><line x1="175" y1="45" x2="175" y2="33" stroke="#94A3B8" stroke-width="1.5" stroke-linecap="round"/><line x1="175" y1="45" x2="183" y2="48" stroke="#94A3B8" stroke-width="1" stroke-linecap="round"/><rect x="60" y="30" width="50" height="35" fill="none" stroke="#94A3B8" stroke-width="1.5" rx="2"/><polygon points="72,55 85,42 98,55" fill="#10B981" opacity="0.5"/><circle cx="78" cy="42" r="5" fill="#F59E0B" opacity="0.5"/><text x="150" y="242" text-anchor="middle" font-family="system-ui" font-size="10" fill="#475569">Padrão 11</text></svg>