<svg xmlns="http://www.w3.org/2000/svg" viewBox="0 0 300 250" width="300" height="250"><rect width="300" height="250" fill="#1a2332" rx="12"/><line x1="80" y1="50" x2="200" y2="60" stroke="#475569" stroke-width="2"/><line x1="80" y1="50" x2="140" y2="100" stroke="#475569" stroke-width="2"/><line x1="200" y1="60" x2="140" y2="100" stroke="#475569" stroke-width="2"/><line x1="140" y1="100" x2="60" y2="140" stroke="#475569" stroke-width="2"/><line x1="140" y1="100" x2="220" y2="130" stroke="#475569" stroke-width="2"/><line x1="60" y1="140" x2="150" y2="170" stroke="#475569" stroke-width="2"/><line x1="220" y1="130" x2="150" y2="170" stroke="#475569" stroke-width="2"/><line x1="150" y1="170" x2="90" y2="200" stroke="#475569" stroke-width="2"/><line x1="60" y1="140" x2="90" y2="200" stroke="#475569" stroke-width="2"/><circle cx="80" cy="50" r="8" fill="#3B82F6" stroke="#1E40AF" stroke-width="1.5"/><text x="80" y="54" text-anchor="middle" font-family="system-ui" font-size="9" font-weight="600" fill="white">1</text><circle cx="200" cy="60" r="8" fill="#3B82F6" stroke="#1E40AF" stroke-width="1.5"/><text x="200" y="64" text-anchor="middle" font-family="system-ui" font-size="9" font-weight="600" fill="white">2</text><circle cx="140" cy="100" r="8" fill="#3B82F6" stroke="#1E40AF" stroke-width="1.5"/><text x="140" y="104" text-anchor="middle" font-family="system-ui" font-size="9" font-weight="600" fill="white">3</text><circle cx="60" cy="140" r="8" fill="#3B82F6" stroke="#1E40AF" stroke-width="1.5"/><text x="60" y="144" text-anchor="middle" font-family="system-ui" font-size="9" font-weight="600" fill="white">4</text><circle cx="220" cy="130" r="8" fill="#3B82F6" stroke="#1E40AF" stroke-width="1.5"/><text x="220" y="134" text-anchor="middle" font-family="system-ui" font-size="9" font-weight="600" fill="white">5</text><circle cx="150" cy="170" r="8" fill="#3B82F6" stroke="#1E40AF" stroke-width="1.5"/><text x="150" y="174" text-anchor="middle" font-family="system-ui" font-size="9" font-weight="600" fill="white">6</text><circle cx="90" cy="200" r="8" fill="#3B82F6" stroke="#1E40AF" stroke-width="1.5"/><text x="90" y="204" text-anchor="middle" font-family="system-ui" font-size="9" font-weight="600" fill="white">7</text><text x="150" y="242" text-anchor="middle" font-family="system-ui" font-size="10" fill="#475569">Padrão 12</text></svg>