<svg xmlns="http://www.w3.org/2000/svg" viewBox="0 0 300 180" width="300" height="180">
<rect width="300" height="180" fill="#1a2332" rx="12"/>
<rect x="20" y="60" width="50" height="60" fill="#F1F5F9" stroke="#475569" stroke-width="2" rx="2"/><line x1="24" y1="90" x2="66" y2="90" stroke="#94A3B8" stroke-width="1.5"/><circle cx="45" cy="75" r="3" fill="#1E293B"/><circle cx="40" cy="100" r="3" fill="#1E293B"/><circle cx="50" cy="110" r="3" fill="#1E293B"/><rect x="92" y="60" width="50" height="60" fill="#F1F5F9" stroke="#475569" stroke-width="2" rx="2"/><line x1="96" y1="90" x2="138" y2="90" stroke="#94A3B8" stroke-width="1.5"/><circle cx="112" cy="70" r="3" fill="#1E293B"/><circle cx="117" cy="75" r="3" fill="#1E293B"/><circle cx="122" cy="80" r="3" fill="#1E293B"/><circle cx="112" cy="100" r="3" fill="#1E293B"/><circle cx="122" cy="100" r="3" fill="#1E293B"/><circle cx="112" cy="110" r="3" fill="#1E293B"/><circle cx="122" cy="110" r="3" fill="#1E293B"/><rect x="164" y="60" width="50" height="60" fill="#F1F5F9" stroke="#475569" stroke-width="2" rx="2"/><line x1="168" y1="90" x2="210" y2="90" stroke="#94A3B8" stroke-width="1.5"/><circle cx="184" cy="70" r="3" fill="#1E293B"/><circle cx="194" cy="70" r="3" fill="#1E293B"/><circle cx="189" cy="75" r="3" fill="#1E293B"/><circle cx="184" cy="80" r="3" fill="#1E293B"/><circle cx="194" cy="80" r="3" fill="#1E293B"/><circle cx="184" cy="100" r="3" fill="#1E293B"/><circle cx="194" cy="100" r="3" fill="#1E293B"/><circle cx="184" cy="105" r="3" fill="#1E293B"/><circle cx="194" cy="105" r="3" fill="#1E293B"/><circle cx="184" cy="110" r="3" fill="#1E293B"/><circle cx="194" cy="110" r="3" fill="#1E293B"/><rect x="236" y="60" width="50" height="60" fill="#F1F5F9" stroke="#475569" stroke-width="2" rx="2"/><line x1="240" y1="90" x2="282" y2="90" stroke="#94A3B8" stroke-width="1.5"/><text x="261" y="95" text-anchor="middle" font-family="system-ui" font-size="22" font-weight="700" fill="#3B82F6">?</text>
<text x="150" y="174" text-anchor="middle" font-family="system-ui" font-size="9" fill="#475569">D-70 - Q11</text>
</svg>