<svg xmlns="http://www.w3.org/2000/svg" viewBox="0 0 280 250" width="280" height="250">
<rect width="280" height="250" fill="#1a2332" rx="12"/>
<rect x="52" y="17" width="86" height="86" fill="#1e2d3d" stroke="#374151" stroke-width="2" rx="2"/><polygon points="95,41.1 99.4436565073311,53.8838315225254 112.9749681579784,54.1595788063135 102.18998726319136,62.3361684774746 106.10914126832775,75.29042119368651 95,67.56 83.89085873167227,75.29042119368651 87.81001273680864,62.3361684774746 77.0250318420216,54.15957880631349 90.5563434926689,53.8838315225254" fill="#F97316"/><circle cx="95" cy="60" r="7.56" fill="#EF4444" stroke="none" stroke-width="2"/><rect x="142" y="17" width="86" height="86" fill="#1e2d3d" stroke="#374151" stroke-width="2" rx="2"/><path d="M178.115 37.05 L191.885 37.05 L191.885 53.115 L207.95 53.115 L207.95 66.885 L191.885 66.885 L191.885 82.95 L178.115 82.95 L178.115 66.885 L162.05 66.885 L162.05 53.115 L178.115 53.115 Z" fill="#06B6D4" stroke="#475569" stroke-width="1.5"/><rect x="175.82" y="50.82" width="18.36" height="18.36" fill="#10B981" stroke="none" stroke-width="2" rx="2"/><rect x="52" y="107" width="86" height="86" fill="#1e2d3d" stroke="#374151" stroke-width="2" rx="2"/><path d="M88.52 128.4 L101.48 128.4 L101.48 143.52 L116.6 143.52 L116.6 156.48 L101.48 156.48 L101.48 171.6 L88.52 171.6 L88.52 156.48 L73.4 156.48 L73.4 143.52 L88.52 143.52 Z" fill="#3B82F6" stroke="#475569" stroke-width="1.5"/><rect x="86.36" y="141.36" width="17.279999999999998" height="17.279999999999998" fill="#F59E0B" stroke="none" stroke-width="2" rx="2"/><rect x="142" y="107" width="86" height="86" fill="#243044" stroke="#374151" stroke-width="2" rx="2"/><text x="185" y="158" text-anchor="middle" font-family="system-ui" font-size="28" font-weight="700" fill="#3B82F6">?</text><rect x="50" y="15" width="180" height="180" fill="none" stroke="#475569" stroke-width="2" rx="2"/>
<text x="140" y="244" text-anchor="middle" font-family="system-ui" font-size="9" fill="#475569">WMT-2 - Q9</text>
</svg>