<svg xmlns="http://www.w3.org/2000/svg" viewBox="0 0 280 250" width="280" height="250">
<rect width="280" height="250" fill="#1a2332" rx="12"/>
<rect x="52" y="17" width="86" height="86" fill="#1e2d3d" stroke="#374151" stroke-width="2" rx="2"/><path d="M89.33 41.1 L100.67 41.1 L100.67 54.33 L113.9 54.33 L113.9 65.67 L100.67 65.67 L100.67 78.9 L89.33 78.9 L89.33 65.67 L76.1 65.67 L76.1 54.33 L89.33 54.33 Z" fill="#06B6D4" stroke="#475569" stroke-width="1.5"/><rect x="87.44" y="52.44" width="15.12" height="15.12" fill="#10B981" stroke="none" stroke-width="2" rx="2"/><rect x="142" y="17" width="86" height="86" fill="#1e2d3d" stroke="#374151" stroke-width="2" rx="2"/><circle cx="185" cy="60" r="22.95" fill="#3B82F6" stroke="#475569" stroke-width="2"/><polygon points="185,50.82 177.0134,64.59 192.9866,64.59" fill="#F59E0B" stroke="none" stroke-width="2"/><rect x="52" y="107" width="86" height="86" fill="#1e2d3d" stroke="#374151" stroke-width="2" rx="2"/><circle cx="95" cy="150" r="21.599999999999998" fill="#EF4444" stroke="#475569" stroke-width="2"/><polygon points="95,141.36 87.4832,154.32 102.5168,154.32" fill="#8B5CF6" stroke="none" stroke-width="2"/><rect x="142" y="107" width="86" height="86" fill="#243044" stroke="#374151" stroke-width="2" rx="2"/><text x="185" y="158" text-anchor="middle" font-family="system-ui" font-size="28" font-weight="700" fill="#3B82F6">?</text><rect x="50" y="15" width="180" height="180" fill="none" stroke="#475569" stroke-width="2" rx="2"/>
<text x="140" y="244" text-anchor="middle" font-family="system-ui" font-size="9" fill="#475569">TIG-NV - Q10</text>
</svg>