<svg xmlns="http://www.w3.org/2000/svg" viewBox="0 0 280 250" width="280" height="250">
<rect width="280" height="250" fill="#1a2332" rx="12"/>
<rect x="44.5" y="17" width="61" height="61" fill="#1e2d3d" stroke="#374151" stroke-width="2" rx="2"/><path d="M70.905 33.85 L79.095 33.85 L79.095 43.405 L88.65 43.405 L88.65 51.595 L79.095 51.595 L79.095 61.15 L70.905 61.15 L70.905 51.595 L61.35 51.595 L61.35 43.405 L70.905 43.405 Z" fill="#06B6D4" stroke="#475569" stroke-width="1.5"/><rect x="69.54" y="42.04" width="10.92" height="10.92" fill="#10B981" stroke="none" stroke-width="2" rx="2"/><rect x="109.5" y="17" width="61" height="61" fill="#1e2d3d" stroke="#374151" stroke-width="2" rx="2"/><circle cx="140" cy="47.5" r="16.575" fill="#3B82F6" stroke="#475569" stroke-width="2"/><polygon points="140,40.87 134.2319,50.815 145.7681,50.815" fill="#F59E0B" stroke="none" stroke-width="2"/><rect x="174.5" y="17" width="61" height="61" fill="#1e2d3d" stroke="#374151" stroke-width="2" rx="2"/><rect x="185.5" y="28" width="39" height="39" fill="#EF4444" stroke="#475569" stroke-width="2" rx="2"/><polygon points="205,39.7 210.46,47.5 205,55.3 199.54,47.5" fill="#8B5CF6" stroke="none" stroke-width="2"/><rect x="44.5" y="82" width="61" height="61" fill="#1e2d3d" stroke="#374151" stroke-width="2" rx="2"/><circle cx="75" cy="112.5" r="15.599999999999998" fill="#EF4444" stroke="#475569" stroke-width="2"/><polygon points="75,106.26 69.5712,115.62 80.4288,115.62" fill="#8B5CF6" stroke="none" stroke-width="2"/><rect x="109.5" y="82" width="61" height="61" fill="#1e2d3d" stroke="#374151" stroke-width="2" rx="2"/><rect x="121.475" y="93.975" width="37.05" height="37.05" fill="#10B981" stroke="#475569" stroke-width="2" rx="2"/><polygon points="140,105.09 145.187,112.5 140,119.91 134.813,112.5" fill="#F97316" stroke="none" stroke-width="2"/><rect x="174.5" y="82" width="61" height="61" fill="#1e2d3d" stroke="#374151" stroke-width="2" rx="2"/><polygon points="205,91.05 186.3385,123.225 223.6615,123.225" fill="#F59E0B" stroke="#475569" stroke-width="2"/><polygon points="212.43049796447048,108.21 212.43049796447048,116.79 205,121.08 197.56950203552952,116.79 197.56950203552952,108.21 205,103.92 " fill="#06B6D4" stroke="none" stroke-width="2"/><rect x="44.5" y="147" width="61" height="61" fill="#1e2d3d" stroke="#374151" stroke-width="2" rx="2"/><rect x="57.45" y="159.95" width="35.099999999999994" height="35.099999999999994" fill="#F59E0B" stroke="#475569" stroke-width="2" rx="2"/><polygon points="75,170.48 79.914,177.5 75,184.52 70.086,177.5" fill="#06B6D4" stroke="none" stroke-width="2"/><rect x="109.5" y="147" width="61" height="61" fill="#1e2d3d" stroke="#374151" stroke-width="2" rx="2"/><polygon points="140,157.025 122.18675,187.7375 157.81325,187.7375" fill="#8B5CF6" stroke="#475569" stroke-width="2"/><polygon points="147.09274805699457,173.405 147.09274805699457,181.595 140,185.69 132.90725194300543,181.595 132.90725194300543,173.405 140,169.31 " fill="#3B82F6" stroke="none" stroke-width="2"/><rect x="174.5" y="147" width="61" height="61" fill="#243044" stroke="#374151" stroke-width="2" rx="2"/><text x="205" y="185.5" text-anchor="middle" font-family="system-ui" font-size="28" font-weight="700" fill="#3B82F6">?</text><rect x="42.5" y="15" width="195" height="195" fill="none" stroke="#475569" stroke-width="2" rx="2"/>
<text x="140" y="244" text-anchor="middle" font-family="system-ui" font-size="9" fill="#475569">BETA-3 - Q15</text>
</svg>